G04 ================== begin FILE IDENTIFICATION RECORD ==================*
G04 Layout Name:  D:/P1_Antoci/B - Proiect/allegro/P1_PCB.brd*
G04 Film Name:    FAB*
G04 File Format:  Gerber RS274X*
G04 File Origin:  Cadence Allegro 24.1-S001*
G04 Origin Date:  Sat Dec 14 11:29:44 2024*
G04 *
G04 Layer:  MANUFACTURING/NCDRILL_LEGEND*
G04 Layer:  MANUFACTURING/NCDRILL_FIGURE*
G04 Layer:  MANUFACTURING/XSECTION_CHART*
G04 Layer:  MANUFACTURING/NCLEGEND-1-2*
G04 *
G04 Offset:    (0.00 0.00)*
G04 Mirror:    No*
G04 Mode:      Positive*
G04 Rotation:  0*
G04 FullContactRelief:  No*
G04 UndefLineWidth:     0.10*
G04 ================== end FILE IDENTIFICATION RECORD ====================*
%FSLAX25Y25*MOIN*%
%IR0*IPPOS*OFA0.00000B0.00000*MIA0B0*SFA1.00000B1.00000*%
%AMMACRO10*
1,1,.0001,.025,0.0*
20,1,.0001,.025,0.0,.02462,-.004341,0.0*
1,1,.0001,.02462,-.004341*
20,1,.0001,.02462,-.004341,.023492,-.008551,0.0*
1,1,.0001,.023492,-.008551*
20,1,.0001,.023492,-.008551,.021651,-.0125,0.0*
1,1,.0001,.021651,-.0125*
20,1,.0001,.021651,-.0125,.019151,-.01607,0.0*
1,1,.0001,.019151,-.01607*
20,1,.0001,.019151,-.01607,.01607,-.019151,0.0*
1,1,.0001,.01607,-.019151*
20,1,.0001,.01607,-.019151,.0125,-.021651,0.0*
1,1,.0001,.0125,-.021651*
20,1,.0001,.0125,-.021651,.008551,-.023492,0.0*
1,1,.0001,.008551,-.023492*
20,1,.0001,.008551,-.023492,.004341,-.02462,0.0*
1,1,.0001,.004341,-.02462*
20,1,.0001,.004341,-.02462,0.0,-.025,0.0*
1,1,.0001,0.0,-.025*
20,1,.0001,0.0,-.025,-.004341,-.02462,0.0*
1,1,.0001,-.004341,-.02462*
20,1,.0001,-.004341,-.02462,-.008551,-.023492,0.0*
1,1,.0001,-.008551,-.023492*
20,1,.0001,-.008551,-.023492,-.0125,-.021651,0.0*
1,1,.0001,-.0125,-.021651*
20,1,.0001,-.0125,-.021651,-.01607,-.019151,0.0*
1,1,.0001,-.01607,-.019151*
20,1,.0001,-.01607,-.019151,-.019151,-.01607,0.0*
1,1,.0001,-.019151,-.01607*
20,1,.0001,-.019151,-.01607,-.021651,-.0125,0.0*
1,1,.0001,-.021651,-.0125*
20,1,.0001,-.021651,-.0125,-.023492,-.008551,0.0*
1,1,.0001,-.023492,-.008551*
20,1,.0001,-.023492,-.008551,-.02462,-.004341,0.0*
1,1,.0001,-.02462,-.004341*
20,1,.0001,-.02462,-.004341,-.025,0.0,0.0*
1,1,.0001,-.025,0.0*
20,1,.0001,-.025,0.0,-.02462,.004341,0.0*
1,1,.0001,-.02462,.004341*
20,1,.0001,-.02462,.004341,-.023492,.008551,0.0*
1,1,.0001,-.023492,.008551*
20,1,.0001,-.023492,.008551,-.021651,.0125,0.0*
1,1,.0001,-.021651,.0125*
20,1,.0001,-.021651,.0125,-.019151,.01607,0.0*
1,1,.0001,-.019151,.01607*
20,1,.0001,-.019151,.01607,-.01607,.019151,0.0*
1,1,.0001,-.01607,.019151*
20,1,.0001,-.01607,.019151,-.0125,.021651,0.0*
1,1,.0001,-.0125,.021651*
20,1,.0001,-.0125,.021651,-.008551,.023492,0.0*
1,1,.0001,-.008551,.023492*
20,1,.0001,-.008551,.023492,-.004341,.02462,0.0*
1,1,.0001,-.004341,.02462*
20,1,.0001,-.004341,.02462,0.0,.025,0.0*
1,1,.0001,0.0,.025*
20,1,.0001,0.0,.025,.004341,.02462,0.0*
1,1,.0001,.004341,.02462*
20,1,.0001,.004341,.02462,.008551,.023492,0.0*
1,1,.0001,.008551,.023492*
20,1,.0001,.008551,.023492,.0125,.021651,0.0*
1,1,.0001,.0125,.021651*
20,1,.0001,.0125,.021651,.01607,.019151,0.0*
1,1,.0001,.01607,.019151*
20,1,.0001,.01607,.019151,.019151,.01607,0.0*
1,1,.0001,.019151,.01607*
20,1,.0001,.019151,.01607,.021651,.0125,0.0*
1,1,.0001,.021651,.0125*
20,1,.0001,.021651,.0125,.023492,.008551,0.0*
1,1,.0001,.023492,.008551*
20,1,.0001,.023492,.008551,.02462,.004341,0.0*
1,1,.0001,.02462,.004341*
20,1,.0001,.02462,.004341,.025,0.0,0.0*
1,1,.0001,.025,0.0*
1,1,.0001,.0125,0.0*
20,1,.0001,.0125,0.0,-.0125,0.0,0.0*
1,1,.0001,-.0125,0.0*
1,1,.0001,0.0,.0125*
20,1,.0001,0.0,.0125,0.0,-.0125,0.0*
1,1,.0001,0.0,-.0125*
%
%ADD10MACRO10*%
%ADD11C,.0001*%
G75*
%LPD*%
G75*
G36*
G01X183000Y43063D02*
Y40893D01*
X185500D01*
Y-153167D01*
X183000D01*
Y-155337D01*
X198000D01*
Y-153167D01*
X195500D01*
Y40893D01*
X198000D01*
Y43063D01*
X183000D01*
G37*
G36*
G01X163000Y-155337D02*
Y-153167D01*
X223000D01*
Y-155337D01*
X163000D01*
G37*
G36*
G01Y40893D02*
Y43063D01*
X223000D01*
Y40893D01*
X163000D01*
G37*
G54D10*
X58000Y61000D03*
X58740Y80260D03*
X52000Y79000D03*
X44000Y82000D03*
X91000Y11000D03*
X78000Y48000D03*
X96000Y71000D03*
X87000Y70000D03*
Y98000D03*
X97000Y106000D03*
Y126000D03*
X128000Y32000D03*
X118000Y13000D03*
X120000Y65190D03*
X123000Y139000D03*
X140000Y39000D03*
X139000Y80000D03*
X206950Y67500D03*
G54D11*
G01X164913Y-165667D02*
Y-163167D01*
X165447D01*
X165660Y-163292D01*
X165820Y-163459D01*
X165953Y-163709D01*
X166060Y-164000D01*
X166087Y-164417D01*
X166060Y-164834D01*
X165953Y-165125D01*
X165820Y-165375D01*
X165660Y-165542D01*
X165447Y-165667D01*
X164913D01*
G01X168233D02*
X167167D01*
Y-163167D01*
X168233D01*
G01X167807Y-164375D02*
X167167D01*
G01X169340Y-165334D02*
X169553Y-165542D01*
X169793Y-165667D01*
X170007D01*
X170220Y-165542D01*
X170380Y-165334D01*
X170460Y-165042D01*
X170407Y-164750D01*
X170273Y-164500D01*
X170033Y-164334D01*
X169713Y-164250D01*
X169527Y-164084D01*
X169447Y-163792D01*
X169500Y-163500D01*
X169633Y-163292D01*
X169820Y-163167D01*
X170007D01*
X170193Y-163250D01*
X170353Y-163459D01*
G01X171780Y-163167D02*
X172420D01*
G01X172100D02*
Y-165667D01*
G01X171780D02*
X172420D01*
G01X174460Y-164417D02*
X174993D01*
Y-165167D01*
X174833Y-165417D01*
X174647Y-165584D01*
X174380Y-165667D01*
X174113Y-165584D01*
X173927Y-165417D01*
X173767Y-165167D01*
X173660Y-164875D01*
X173607Y-164542D01*
Y-164250D01*
X173660Y-164000D01*
X173767Y-163709D01*
X173927Y-163459D01*
X174087Y-163292D01*
X174300Y-163167D01*
X174487D01*
X174700Y-163250D01*
X174860Y-163417D01*
G01X175887Y-165667D02*
Y-163167D01*
X177113Y-165667D01*
Y-163167D01*
G01X181487Y-163375D02*
X181327Y-163250D01*
X181140Y-163167D01*
X180927D01*
X180687Y-163292D01*
X180500Y-163500D01*
X180367Y-163750D01*
X180260Y-164167D01*
X180233Y-164542D01*
X180287Y-164917D01*
X180367Y-165167D01*
X180527Y-165417D01*
X180713Y-165584D01*
X180900Y-165667D01*
X181087D01*
X181273Y-165584D01*
X181433Y-165459D01*
X181567Y-165292D01*
G01X182567Y-165667D02*
Y-163167D01*
X183233D01*
X183447Y-163292D01*
X183580Y-163459D01*
X183633Y-163792D01*
X183580Y-164125D01*
X183420Y-164334D01*
X183233Y-164459D01*
X182567D01*
G01X183233D02*
X183633Y-165667D01*
G01X185300D02*
X185087Y-165625D01*
X184900Y-165459D01*
X184740Y-165209D01*
X184633Y-164917D01*
X184580Y-164584D01*
Y-164250D01*
X184633Y-163917D01*
X184740Y-163625D01*
X184900Y-163375D01*
X185087Y-163209D01*
X185300Y-163167D01*
X185513Y-163209D01*
X185700Y-163375D01*
X185860Y-163625D01*
X185967Y-163917D01*
X186020Y-164250D01*
Y-164584D01*
X185967Y-164917D01*
X185860Y-165209D01*
X185700Y-165459D01*
X185513Y-165625D01*
X185300Y-165667D01*
G01X186940Y-165334D02*
X187153Y-165542D01*
X187393Y-165667D01*
X187607D01*
X187820Y-165542D01*
X187980Y-165334D01*
X188060Y-165042D01*
X188007Y-164750D01*
X187873Y-164500D01*
X187633Y-164334D01*
X187313Y-164250D01*
X187127Y-164084D01*
X187047Y-163792D01*
X187100Y-163500D01*
X187233Y-163292D01*
X187420Y-163167D01*
X187607D01*
X187793Y-163250D01*
X187953Y-163459D01*
G01X189140Y-165334D02*
X189353Y-165542D01*
X189593Y-165667D01*
X189807D01*
X190020Y-165542D01*
X190180Y-165334D01*
X190260Y-165042D01*
X190207Y-164750D01*
X190073Y-164500D01*
X189833Y-164334D01*
X189513Y-164250D01*
X189327Y-164084D01*
X189247Y-163792D01*
X189300Y-163500D01*
X189433Y-163292D01*
X189620Y-163167D01*
X189807D01*
X189993Y-163250D01*
X190153Y-163459D01*
G01X193540Y-165334D02*
X193753Y-165542D01*
X193993Y-165667D01*
X194207D01*
X194420Y-165542D01*
X194580Y-165334D01*
X194660Y-165042D01*
X194607Y-164750D01*
X194473Y-164500D01*
X194233Y-164334D01*
X193913Y-164250D01*
X193727Y-164084D01*
X193647Y-163792D01*
X193700Y-163500D01*
X193833Y-163292D01*
X194020Y-163167D01*
X194207D01*
X194393Y-163250D01*
X194553Y-163459D01*
G01X196833Y-165667D02*
X195767D01*
Y-163167D01*
X196833D01*
G01X196407Y-164375D02*
X195767D01*
G01X199087Y-163375D02*
X198927Y-163250D01*
X198740Y-163167D01*
X198527D01*
X198287Y-163292D01*
X198100Y-163500D01*
X197967Y-163750D01*
X197860Y-164167D01*
X197833Y-164542D01*
X197887Y-164917D01*
X197967Y-165167D01*
X198127Y-165417D01*
X198313Y-165584D01*
X198500Y-165667D01*
X198687D01*
X198873Y-165584D01*
X199033Y-165459D01*
X199167Y-165292D01*
G01X200700Y-163167D02*
Y-165667D01*
G01X200087Y-163167D02*
X201313D01*
G01X202580D02*
X203220D01*
G01X202900D02*
Y-165667D01*
G01X202580D02*
X203220D01*
G01X205100D02*
X204887Y-165625D01*
X204700Y-165459D01*
X204540Y-165209D01*
X204433Y-164917D01*
X204380Y-164584D01*
Y-164250D01*
X204433Y-163917D01*
X204540Y-163625D01*
X204700Y-163375D01*
X204887Y-163209D01*
X205100Y-163167D01*
X205313Y-163209D01*
X205500Y-163375D01*
X205660Y-163625D01*
X205767Y-163917D01*
X205820Y-164250D01*
Y-164584D01*
X205767Y-164917D01*
X205660Y-165209D01*
X205500Y-165459D01*
X205313Y-165625D01*
X205100Y-165667D01*
G01X206687D02*
Y-163167D01*
X207913Y-165667D01*
Y-163167D01*
G01X212287Y-163375D02*
X212127Y-163250D01*
X211940Y-163167D01*
X211727D01*
X211487Y-163292D01*
X211300Y-163500D01*
X211167Y-163750D01*
X211060Y-164167D01*
X211033Y-164542D01*
X211087Y-164917D01*
X211167Y-165167D01*
X211327Y-165417D01*
X211513Y-165584D01*
X211700Y-165667D01*
X211887D01*
X212073Y-165584D01*
X212233Y-165459D01*
X212367Y-165292D01*
G01X213340Y-165667D02*
Y-163167D01*
G01X214460D02*
Y-165667D01*
G01Y-164417D02*
X213340D01*
G01X215433Y-165667D02*
X216100Y-163167D01*
X216767Y-165667D01*
G01X216527Y-164792D02*
X215673D01*
G01X217767Y-165667D02*
Y-163167D01*
X218433D01*
X218647Y-163292D01*
X218780Y-163459D01*
X218833Y-163792D01*
X218780Y-164125D01*
X218620Y-164334D01*
X218433Y-164459D01*
X217767D01*
G01X218433D02*
X218833Y-165667D01*
G01X220500Y-163167D02*
Y-165667D01*
G01X219887Y-163167D02*
X221113D01*
G01X163600Y-166500D02*
X165200D01*
G01X165800D02*
X167400D01*
G01X168000D02*
X169600D01*
G01X170200D02*
X171800D01*
G01X172400D02*
X174000D01*
G01X174600D02*
X176200D01*
G01X176800D02*
X178400D01*
G01X179000D02*
X180600D01*
G01X181200D02*
X182800D01*
G01X183400D02*
X185000D01*
G01X185600D02*
X187200D01*
G01X187800D02*
X189400D01*
G01X190000D02*
X191600D01*
G01X192200D02*
X193800D01*
G01X194400D02*
X196000D01*
G01X196600D02*
X198200D01*
G01X198800D02*
X200400D01*
G01X201000D02*
X202600D01*
G01X203200D02*
X204800D01*
G01X205400D02*
X207000D01*
G01X207600D02*
X209200D01*
G01X209800D02*
X211400D01*
G01X212000D02*
X213600D01*
G01X214200D02*
X215800D01*
G01X216400D02*
X218000D01*
G01X218600D02*
X220200D01*
G01X220800D02*
X222400D01*
G01X169900Y-167667D02*
Y-170167D01*
G01X169287Y-167667D02*
X170513D01*
G01X172100Y-170167D02*
X171887Y-170125D01*
X171700Y-169959D01*
X171540Y-169709D01*
X171433Y-169417D01*
X171380Y-169084D01*
Y-168750D01*
X171433Y-168417D01*
X171540Y-168125D01*
X171700Y-167875D01*
X171887Y-167709D01*
X172100Y-167667D01*
X172313Y-167709D01*
X172500Y-167875D01*
X172660Y-168125D01*
X172767Y-168417D01*
X172820Y-168750D01*
Y-169084D01*
X172767Y-169417D01*
X172660Y-169709D01*
X172500Y-169959D01*
X172313Y-170125D01*
X172100Y-170167D01*
G01X174300Y-167667D02*
Y-170167D01*
G01X173687Y-167667D02*
X174913D01*
G01X175833Y-170167D02*
X176500Y-167667D01*
X177167Y-170167D01*
G01X176927Y-169292D02*
X176073D01*
G01X178167Y-167667D02*
Y-170167D01*
X179233D01*
G01X183100Y-167667D02*
Y-170167D01*
G01X182487Y-167667D02*
X183713D01*
G01X184740Y-170167D02*
Y-167667D01*
G01X185860D02*
Y-170167D01*
G01Y-168917D02*
X184740D01*
G01X187180Y-167667D02*
X187820D01*
G01X187500D02*
Y-170167D01*
G01X187180D02*
X187820D01*
G01X190287Y-167875D02*
X190127Y-167750D01*
X189940Y-167667D01*
X189727D01*
X189487Y-167792D01*
X189300Y-168000D01*
X189167Y-168250D01*
X189060Y-168667D01*
X189033Y-169042D01*
X189087Y-169417D01*
X189167Y-169667D01*
X189327Y-169917D01*
X189513Y-170084D01*
X189700Y-170167D01*
X189887D01*
X190073Y-170084D01*
X190233Y-169959D01*
X190367Y-169792D01*
G01X191313Y-170167D02*
Y-167667D01*
G01X192327D02*
X191313Y-169209D01*
G01X192487Y-170167D02*
X191767Y-168500D01*
G01X193487Y-170167D02*
Y-167667D01*
X194713Y-170167D01*
Y-167667D01*
G01X196833Y-170167D02*
X195767D01*
Y-167667D01*
X196833D01*
G01X196407Y-168875D02*
X195767D01*
G01X197940Y-169834D02*
X198153Y-170042D01*
X198393Y-170167D01*
X198607D01*
X198820Y-170042D01*
X198980Y-169834D01*
X199060Y-169542D01*
X199007Y-169250D01*
X198873Y-169000D01*
X198633Y-168834D01*
X198313Y-168750D01*
X198127Y-168584D01*
X198047Y-168292D01*
X198100Y-168000D01*
X198233Y-167792D01*
X198420Y-167667D01*
X198607D01*
X198793Y-167750D01*
X198953Y-167959D01*
G01X200140Y-169834D02*
X200353Y-170042D01*
X200593Y-170167D01*
X200807D01*
X201020Y-170042D01*
X201180Y-169834D01*
X201260Y-169542D01*
X201207Y-169250D01*
X201073Y-169000D01*
X200833Y-168834D01*
X200513Y-168750D01*
X200327Y-168584D01*
X200247Y-168292D01*
X200300Y-168000D01*
X200433Y-167792D01*
X200620Y-167667D01*
X200807D01*
X200993Y-167750D01*
X201153Y-167959D01*
G01X204593Y-169125D02*
X204780Y-168834D01*
X204940Y-168667D01*
X205153Y-168584D01*
X205340Y-168667D01*
X205473Y-168834D01*
X205580Y-169084D01*
X205607Y-169375D01*
X205580Y-169625D01*
X205473Y-169875D01*
X205313Y-170084D01*
X205127Y-170167D01*
X204913Y-170084D01*
X204727Y-169834D01*
X204620Y-169459D01*
X204593Y-169042D01*
X204647Y-168500D01*
X204727Y-168209D01*
X204860Y-167917D01*
X205047Y-167709D01*
X205233Y-167667D01*
X205420Y-167750D01*
X205553Y-167959D01*
G01X207620Y-170167D02*
Y-167667D01*
X206633Y-169459D01*
X207967D01*
G01X211007Y-170167D02*
Y-167667D01*
X211700Y-169750D01*
X212393Y-167667D01*
Y-170167D01*
G01X213580Y-167667D02*
X214220D01*
G01X213900D02*
Y-170167D01*
G01X213580D02*
X214220D01*
G01X215567Y-167667D02*
Y-170167D01*
X216633D01*
G01X163000Y-153167D02*
Y40893D01*
X223000D01*
Y-153167D01*
X163000D01*
G01X190500Y46363D02*
X188000D01*
X188500Y46043D01*
G01X190500D02*
Y46683D01*
G01X189667Y48216D02*
Y48910D01*
G01X188417Y50256D02*
X188167Y50416D01*
X188042Y50603D01*
X188000Y50816D01*
X188083Y51083D01*
X188292Y51270D01*
X188542Y51323D01*
X188792Y51296D01*
X189000Y51190D01*
X189417Y50656D01*
X189708Y50416D01*
X190125Y50256D01*
X190500Y50203D01*
Y51323D01*
G01X162000Y55000D02*
Y155000D01*
X859500D01*
Y55000D01*
X162000D01*
G01X173005Y86250D02*
Y98750D01*
X178895D01*
G01X176725Y92708D02*
X173005D01*
G01X186490Y98750D02*
X190210D01*
G01X188350D02*
Y86250D01*
G01X186490D02*
X190210D01*
G01X201680Y92500D02*
X204780D01*
Y88750D01*
X203850Y87500D01*
X202765Y86667D01*
X201215Y86250D01*
X199665Y86667D01*
X198580Y87500D01*
X197650Y88750D01*
X197030Y90208D01*
X196720Y91875D01*
Y93333D01*
X197030Y94583D01*
X197650Y96042D01*
X198580Y97292D01*
X199510Y98125D01*
X200750Y98750D01*
X201835D01*
X203075Y98333D01*
X204005Y97500D01*
G01X209740Y98750D02*
Y89792D01*
X210360Y87916D01*
X211600Y86667D01*
X213150Y86250D01*
X214700Y86667D01*
X215940Y87916D01*
X216560Y89792D01*
Y98750D01*
G01X222450Y86250D02*
Y98750D01*
X226325D01*
X227565Y98125D01*
X228340Y97292D01*
X228650Y95625D01*
X228340Y93958D01*
X227410Y92917D01*
X226325Y92292D01*
X222450D01*
G01X226325D02*
X228650Y86250D01*
G01X241050D02*
X234850D01*
Y98750D01*
X241050D01*
G01X238570Y92708D02*
X234850D01*
G01X162000Y80000D02*
X859500D01*
G01X162000Y105000D02*
X859500D01*
G01X162000Y130000D02*
X859500D01*
G01X225467Y-154000D02*
Y-156500D01*
X226533D01*
G01X227693Y-154417D02*
X227853Y-154167D01*
X228040Y-154042D01*
X228253Y-154000D01*
X228520Y-154083D01*
X228707Y-154292D01*
X228760Y-154542D01*
X228733Y-154792D01*
X228627Y-155000D01*
X228093Y-155417D01*
X227853Y-155708D01*
X227693Y-156125D01*
X227640Y-156500D01*
X228760D01*
G01X232813Y-155167D02*
X232920Y-155042D01*
X233000Y-154833D01*
X233053Y-154542D01*
X233000Y-154292D01*
X232893Y-154125D01*
X232707Y-154000D01*
X231987D01*
Y-156500D01*
X232867D01*
X233053Y-156333D01*
X233160Y-156083D01*
X233213Y-155792D01*
X233160Y-155500D01*
X233000Y-155250D01*
X232813Y-155167D01*
X231987D01*
G01X234800Y-156500D02*
X234587Y-156458D01*
X234400Y-156292D01*
X234240Y-156042D01*
X234133Y-155750D01*
X234080Y-155417D01*
Y-155083D01*
X234133Y-154750D01*
X234240Y-154458D01*
X234400Y-154208D01*
X234587Y-154042D01*
X234800Y-154000D01*
X235013Y-154042D01*
X235200Y-154208D01*
X235360Y-154458D01*
X235467Y-154750D01*
X235520Y-155083D01*
Y-155417D01*
X235467Y-155750D01*
X235360Y-156042D01*
X235200Y-156292D01*
X235013Y-156458D01*
X234800Y-156500D01*
G01X237000Y-154000D02*
Y-156500D01*
G01X236387Y-154000D02*
X237613D01*
G01X239200D02*
Y-156500D01*
G01X238587Y-154000D02*
X239813D01*
G01X241400Y-156500D02*
X241187Y-156458D01*
X241000Y-156292D01*
X240840Y-156042D01*
X240733Y-155750D01*
X240680Y-155417D01*
Y-155083D01*
X240733Y-154750D01*
X240840Y-154458D01*
X241000Y-154208D01*
X241187Y-154042D01*
X241400Y-154000D01*
X241613Y-154042D01*
X241800Y-154208D01*
X241960Y-154458D01*
X242067Y-154750D01*
X242120Y-155083D01*
Y-155417D01*
X242067Y-155750D01*
X241960Y-156042D01*
X241800Y-156292D01*
X241613Y-156458D01*
X241400Y-156500D01*
G01X242907D02*
Y-154000D01*
X243600Y-156083D01*
X244293Y-154000D01*
Y-156500D01*
G01X248587Y-154208D02*
X248427Y-154083D01*
X248240Y-154000D01*
X248027D01*
X247787Y-154125D01*
X247600Y-154333D01*
X247467Y-154583D01*
X247360Y-155000D01*
X247333Y-155375D01*
X247387Y-155750D01*
X247467Y-156000D01*
X247627Y-156250D01*
X247813Y-156417D01*
X248000Y-156500D01*
X248187D01*
X248373Y-156417D01*
X248533Y-156292D01*
X248667Y-156125D01*
G01X250200Y-156500D02*
X249987Y-156458D01*
X249800Y-156292D01*
X249640Y-156042D01*
X249533Y-155750D01*
X249480Y-155417D01*
Y-155083D01*
X249533Y-154750D01*
X249640Y-154458D01*
X249800Y-154208D01*
X249987Y-154042D01*
X250200Y-154000D01*
X250413Y-154042D01*
X250600Y-154208D01*
X250760Y-154458D01*
X250867Y-154750D01*
X250920Y-155083D01*
Y-155417D01*
X250867Y-155750D01*
X250760Y-156042D01*
X250600Y-156292D01*
X250413Y-156458D01*
X250200Y-156500D01*
G01X251787D02*
Y-154000D01*
X253013Y-156500D01*
Y-154000D01*
G01X254013Y-156500D02*
Y-154000D01*
X254547D01*
X254760Y-154125D01*
X254920Y-154292D01*
X255053Y-154542D01*
X255160Y-154833D01*
X255187Y-155250D01*
X255160Y-155667D01*
X255053Y-155958D01*
X254920Y-156208D01*
X254760Y-156375D01*
X254547Y-156500D01*
X254013D01*
G01X256213Y-154000D02*
Y-155792D01*
X256320Y-156167D01*
X256533Y-156417D01*
X256800Y-156500D01*
X257067Y-156417D01*
X257280Y-156167D01*
X257387Y-155792D01*
Y-154000D01*
G01X259587Y-154208D02*
X259427Y-154083D01*
X259240Y-154000D01*
X259027D01*
X258787Y-154125D01*
X258600Y-154333D01*
X258467Y-154583D01*
X258360Y-155000D01*
X258333Y-155375D01*
X258387Y-155750D01*
X258467Y-156000D01*
X258627Y-156250D01*
X258813Y-156417D01*
X259000Y-156500D01*
X259187D01*
X259373Y-156417D01*
X259533Y-156292D01*
X259667Y-156125D01*
G01X261200Y-154000D02*
Y-156500D01*
G01X260587Y-154000D02*
X261813D01*
G01X263400Y-156500D02*
X263187Y-156458D01*
X263000Y-156292D01*
X262840Y-156042D01*
X262733Y-155750D01*
X262680Y-155417D01*
Y-155083D01*
X262733Y-154750D01*
X262840Y-154458D01*
X263000Y-154208D01*
X263187Y-154042D01*
X263400Y-154000D01*
X263613Y-154042D01*
X263800Y-154208D01*
X263960Y-154458D01*
X264067Y-154750D01*
X264120Y-155083D01*
Y-155417D01*
X264067Y-155750D01*
X263960Y-156042D01*
X263800Y-156292D01*
X263613Y-156458D01*
X263400Y-156500D01*
G01X265067D02*
Y-154000D01*
X265733D01*
X265947Y-154125D01*
X266080Y-154292D01*
X266133Y-154625D01*
X266080Y-154958D01*
X265920Y-155167D01*
X265733Y-155292D01*
X265067D01*
G01X265733D02*
X266133Y-156500D01*
G01X229813Y-159916D02*
X230987Y-158083D01*
G01X230400Y-157750D02*
Y-160250D01*
G01X230987Y-159916D02*
X229813Y-158083D01*
G01X229600Y-159000D02*
X231200D01*
G01X236440Y-159500D02*
X236653Y-159708D01*
X236893Y-159833D01*
X237107D01*
X237320Y-159708D01*
X237480Y-159500D01*
X237560Y-159208D01*
X237507Y-158916D01*
X237373Y-158666D01*
X237133Y-158500D01*
X236813Y-158416D01*
X236627Y-158250D01*
X236547Y-157958D01*
X236600Y-157666D01*
X236733Y-157458D01*
X236920Y-157333D01*
X237107D01*
X237293Y-157416D01*
X237453Y-157625D01*
G01X238613Y-157333D02*
Y-159125D01*
X238720Y-159500D01*
X238933Y-159750D01*
X239200Y-159833D01*
X239467Y-159750D01*
X239680Y-159500D01*
X239787Y-159125D01*
Y-157333D01*
G01X240867Y-159833D02*
Y-157333D01*
X241533D01*
X241747Y-157458D01*
X241880Y-157625D01*
X241933Y-157958D01*
X241880Y-158291D01*
X241720Y-158500D01*
X241533Y-158625D01*
X240867D01*
G01X241533D02*
X241933Y-159833D01*
G01X243093D02*
Y-157333D01*
X244107D01*
G01X243733Y-158541D02*
X243093D01*
G01X245133Y-159833D02*
X245800Y-157333D01*
X246467Y-159833D01*
G01X246227Y-158958D02*
X245373D01*
G01X248587Y-157541D02*
X248427Y-157416D01*
X248240Y-157333D01*
X248027D01*
X247787Y-157458D01*
X247600Y-157666D01*
X247467Y-157916D01*
X247360Y-158333D01*
X247333Y-158708D01*
X247387Y-159083D01*
X247467Y-159333D01*
X247627Y-159583D01*
X247813Y-159750D01*
X248000Y-159833D01*
X248187D01*
X248373Y-159750D01*
X248533Y-159625D01*
X248667Y-159458D01*
G01X250733Y-159833D02*
X249667D01*
Y-157333D01*
X250733D01*
G01X250307Y-158541D02*
X249667D01*
G01X229813Y-56220D02*
X230987Y-54387D01*
G01X230400Y-54054D02*
Y-56554D01*
G01X230987Y-56220D02*
X229813Y-54387D01*
G01X229600Y-55304D02*
X231200D01*
G01X236413Y-56137D02*
Y-53637D01*
X236947D01*
X237160Y-53762D01*
X237320Y-53929D01*
X237453Y-54179D01*
X237560Y-54470D01*
X237587Y-54887D01*
X237560Y-55304D01*
X237453Y-55595D01*
X237320Y-55845D01*
X237160Y-56012D01*
X236947Y-56137D01*
X236413D01*
G01X238880Y-53637D02*
X239520D01*
G01X239200D02*
Y-56137D01*
G01X238880D02*
X239520D01*
G01X241933D02*
X240867D01*
Y-53637D01*
X241933D01*
G01X241507Y-54845D02*
X240867D01*
G01X243067Y-53637D02*
Y-56137D01*
X244133D01*
G01X246333D02*
X245267D01*
Y-53637D01*
X246333D01*
G01X245907Y-54845D02*
X245267D01*
G01X248587Y-53845D02*
X248427Y-53720D01*
X248240Y-53637D01*
X248027D01*
X247787Y-53762D01*
X247600Y-53970D01*
X247467Y-54220D01*
X247360Y-54637D01*
X247333Y-55012D01*
X247387Y-55387D01*
X247467Y-55637D01*
X247627Y-55887D01*
X247813Y-56054D01*
X248000Y-56137D01*
X248187D01*
X248373Y-56054D01*
X248533Y-55929D01*
X248667Y-55762D01*
G01X250200Y-53637D02*
Y-56137D01*
G01X249587Y-53637D02*
X250813D01*
G01X251867Y-56137D02*
Y-53637D01*
X252533D01*
X252747Y-53762D01*
X252880Y-53929D01*
X252933Y-54262D01*
X252880Y-54595D01*
X252720Y-54804D01*
X252533Y-54929D01*
X251867D01*
G01X252533D02*
X252933Y-56137D01*
G01X254280Y-53637D02*
X254920D01*
G01X254600D02*
Y-56137D01*
G01X254280D02*
X254920D01*
G01X257387Y-53845D02*
X257227Y-53720D01*
X257040Y-53637D01*
X256827D01*
X256587Y-53762D01*
X256400Y-53970D01*
X256267Y-54220D01*
X256160Y-54637D01*
X256133Y-55012D01*
X256187Y-55387D01*
X256267Y-55637D01*
X256427Y-55887D01*
X256613Y-56054D01*
X256800Y-56137D01*
X256987D01*
X257173Y-56054D01*
X257333Y-55929D01*
X257467Y-55762D01*
G01X229813Y43813D02*
X230987Y45646D01*
G01X230400Y45979D02*
Y43479D01*
G01X230987Y43813D02*
X229813Y45646D01*
G01X229600Y44729D02*
X231200D01*
G01X236440Y44229D02*
X236653Y44021D01*
X236893Y43896D01*
X237107D01*
X237320Y44021D01*
X237480Y44229D01*
X237560Y44521D01*
X237507Y44813D01*
X237373Y45063D01*
X237133Y45229D01*
X236813Y45313D01*
X236627Y45479D01*
X236547Y45771D01*
X236600Y46063D01*
X236733Y46271D01*
X236920Y46396D01*
X237107D01*
X237293Y46313D01*
X237453Y46104D01*
G01X238613Y46396D02*
Y44604D01*
X238720Y44229D01*
X238933Y43979D01*
X239200Y43896D01*
X239467Y43979D01*
X239680Y44229D01*
X239787Y44604D01*
Y46396D01*
G01X240867Y43896D02*
Y46396D01*
X241533D01*
X241747Y46271D01*
X241880Y46104D01*
X241933Y45771D01*
X241880Y45438D01*
X241720Y45229D01*
X241533Y45104D01*
X240867D01*
G01X241533D02*
X241933Y43896D01*
G01X243093D02*
Y46396D01*
X244107D01*
G01X243733Y45188D02*
X243093D01*
G01X245133Y43896D02*
X245800Y46396D01*
X246467Y43896D01*
G01X246227Y44771D02*
X245373D01*
G01X248587Y46188D02*
X248427Y46313D01*
X248240Y46396D01*
X248027D01*
X247787Y46271D01*
X247600Y46063D01*
X247467Y45813D01*
X247360Y45396D01*
X247333Y45021D01*
X247387Y44646D01*
X247467Y44396D01*
X247627Y44146D01*
X247813Y43979D01*
X248000Y43896D01*
X248187D01*
X248373Y43979D01*
X248533Y44104D01*
X248667Y44271D01*
G01X250733Y43896D02*
X249667D01*
Y46396D01*
X250733D01*
G01X250307Y45188D02*
X249667D01*
G01X225467Y42230D02*
Y39730D01*
X226533D01*
G01X228200D02*
Y42230D01*
X227880Y41730D01*
G01Y39730D02*
X228520D01*
G01X232600Y42230D02*
Y39730D01*
G01X231987Y42230D02*
X233213D01*
G01X234800Y39730D02*
X234587Y39772D01*
X234400Y39938D01*
X234240Y40188D01*
X234133Y40480D01*
X234080Y40813D01*
Y41147D01*
X234133Y41480D01*
X234240Y41772D01*
X234400Y42022D01*
X234587Y42188D01*
X234800Y42230D01*
X235013Y42188D01*
X235200Y42022D01*
X235360Y41772D01*
X235467Y41480D01*
X235520Y41147D01*
Y40813D01*
X235467Y40480D01*
X235360Y40188D01*
X235200Y39938D01*
X235013Y39772D01*
X234800Y39730D01*
G01X236467D02*
Y42230D01*
X237107D01*
X237320Y42105D01*
X237480Y41813D01*
X237533Y41480D01*
X237480Y41147D01*
X237347Y40897D01*
X237107Y40772D01*
X236467D01*
G01X241987Y42022D02*
X241827Y42147D01*
X241640Y42230D01*
X241427D01*
X241187Y42105D01*
X241000Y41897D01*
X240867Y41647D01*
X240760Y41230D01*
X240733Y40855D01*
X240787Y40480D01*
X240867Y40230D01*
X241027Y39980D01*
X241213Y39813D01*
X241400Y39730D01*
X241587D01*
X241773Y39813D01*
X241933Y39938D01*
X242067Y40105D01*
G01X243600Y39730D02*
X243387Y39772D01*
X243200Y39938D01*
X243040Y40188D01*
X242933Y40480D01*
X242880Y40813D01*
Y41147D01*
X242933Y41480D01*
X243040Y41772D01*
X243200Y42022D01*
X243387Y42188D01*
X243600Y42230D01*
X243813Y42188D01*
X244000Y42022D01*
X244160Y41772D01*
X244267Y41480D01*
X244320Y41147D01*
Y40813D01*
X244267Y40480D01*
X244160Y40188D01*
X244000Y39938D01*
X243813Y39772D01*
X243600Y39730D01*
G01X245187D02*
Y42230D01*
X246413Y39730D01*
Y42230D01*
G01X247413Y39730D02*
Y42230D01*
X247947D01*
X248160Y42105D01*
X248320Y41938D01*
X248453Y41688D01*
X248560Y41397D01*
X248587Y40980D01*
X248560Y40563D01*
X248453Y40272D01*
X248320Y40022D01*
X248160Y39855D01*
X247947Y39730D01*
X247413D01*
G01X249613Y42230D02*
Y40438D01*
X249720Y40063D01*
X249933Y39813D01*
X250200Y39730D01*
X250467Y39813D01*
X250680Y40063D01*
X250787Y40438D01*
Y42230D01*
G01X252987Y42022D02*
X252827Y42147D01*
X252640Y42230D01*
X252427D01*
X252187Y42105D01*
X252000Y41897D01*
X251867Y41647D01*
X251760Y41230D01*
X251733Y40855D01*
X251787Y40480D01*
X251867Y40230D01*
X252027Y39980D01*
X252213Y39813D01*
X252400Y39730D01*
X252587D01*
X252773Y39813D01*
X252933Y39938D01*
X253067Y40105D01*
G01X254600Y42230D02*
Y39730D01*
G01X253987Y42230D02*
X255213D01*
G01X256800Y39730D02*
X256587Y39772D01*
X256400Y39938D01*
X256240Y40188D01*
X256133Y40480D01*
X256080Y40813D01*
Y41147D01*
X256133Y41480D01*
X256240Y41772D01*
X256400Y42022D01*
X256587Y42188D01*
X256800Y42230D01*
X257013Y42188D01*
X257200Y42022D01*
X257360Y41772D01*
X257467Y41480D01*
X257520Y41147D01*
Y40813D01*
X257467Y40480D01*
X257360Y40188D01*
X257200Y39938D01*
X257013Y39772D01*
X256800Y39730D01*
G01X258467D02*
Y42230D01*
X259133D01*
X259347Y42105D01*
X259480Y41938D01*
X259533Y41605D01*
X259480Y41272D01*
X259320Y41063D01*
X259133Y40938D01*
X258467D01*
G01X259133D02*
X259533Y39730D01*
G01X251900Y105000D02*
Y55000D01*
G01X275305Y86250D02*
Y98750D01*
X281195D01*
G01X279025Y92708D02*
X275305D01*
G01X288790Y98750D02*
X292510D01*
G01X290650D02*
Y86250D01*
G01X288790D02*
X292510D01*
G01X299485D02*
Y98750D01*
X306615Y86250D01*
Y98750D01*
G01X313590D02*
X317310D01*
G01X315450D02*
Y86250D01*
G01X313590D02*
X317310D01*
G01X324595Y87916D02*
X325835Y86875D01*
X327230Y86250D01*
X328470D01*
X329710Y86875D01*
X330640Y87916D01*
X331105Y89375D01*
X330795Y90833D01*
X330020Y92083D01*
X328625Y92917D01*
X326765Y93333D01*
X325680Y94167D01*
X325215Y95625D01*
X325525Y97083D01*
X326300Y98125D01*
X327385Y98750D01*
X328470D01*
X329555Y98333D01*
X330485Y97292D01*
G01X336995Y86250D02*
Y98750D01*
G01X343505D02*
Y86250D01*
G01Y92500D02*
X336995D01*
G01X355750Y86250D02*
X349550D01*
Y98750D01*
X355750D01*
G01X353270Y92708D02*
X349550D01*
G01X361640Y86250D02*
Y98750D01*
X364740D01*
X365980Y98125D01*
X366910Y97292D01*
X367685Y96042D01*
X368305Y94583D01*
X368460Y92500D01*
X368305Y90417D01*
X367685Y88958D01*
X366910Y87708D01*
X365980Y86875D01*
X364740Y86250D01*
X361640D01*
G01X372800Y82083D02*
X382100D01*
G01X386595Y87916D02*
X387835Y86875D01*
X389230Y86250D01*
X390470D01*
X391710Y86875D01*
X392640Y87916D01*
X393105Y89375D01*
X392795Y90833D01*
X392020Y92083D01*
X390625Y92917D01*
X388765Y93333D01*
X387680Y94167D01*
X387215Y95625D01*
X387525Y97083D01*
X388300Y98125D01*
X389385Y98750D01*
X390470D01*
X391555Y98333D01*
X392485Y97292D01*
G01X400390Y98750D02*
X404110D01*
G01X402250D02*
Y86250D01*
G01X400390D02*
X404110D01*
G01X411705Y98750D02*
X417595D01*
X411705Y86250D01*
X417595D01*
G01X430150D02*
X423950D01*
Y98750D01*
X430150D01*
G01X427670Y92708D02*
X423950D01*
G01X334050Y61250D02*
Y73750D01*
X332190Y71250D01*
G01Y61250D02*
X335910D01*
G01X343505Y66458D02*
X344590Y67917D01*
X345520Y68750D01*
X346760Y69167D01*
X347845Y68750D01*
X348620Y67917D01*
X349240Y66667D01*
X349395Y65208D01*
X349240Y63958D01*
X348620Y62708D01*
X347690Y61667D01*
X346605Y61250D01*
X345365Y61667D01*
X344280Y62916D01*
X343660Y64792D01*
X343505Y66875D01*
X343815Y69583D01*
X344280Y71042D01*
X345055Y72500D01*
X346140Y73542D01*
X347225Y73750D01*
X348310Y73333D01*
X349085Y72292D01*
G01X358850Y60833D02*
X358540Y61042D01*
Y61458D01*
X358850Y61667D01*
X359160Y61458D01*
Y61042D01*
X358850Y60833D01*
G01X371250Y73750D02*
X370010Y73333D01*
X369080Y72292D01*
X368460Y71042D01*
X367995Y69375D01*
X367840Y67500D01*
X367995Y65625D01*
X368460Y63958D01*
X369080Y62708D01*
X370010Y61667D01*
X371250Y61250D01*
X372490Y61667D01*
X373420Y62708D01*
X374040Y63958D01*
X374505Y65625D01*
X374660Y67500D01*
X374505Y69375D01*
X374040Y71042D01*
X373420Y72292D01*
X372490Y73333D01*
X371250Y73750D01*
G01X352340Y136250D02*
Y148750D01*
X355440D01*
X356680Y148125D01*
X357610Y147292D01*
X358385Y146042D01*
X359005Y144583D01*
X359160Y142500D01*
X359005Y140417D01*
X358385Y138958D01*
X357610Y137708D01*
X356680Y136875D01*
X355440Y136250D01*
X352340D01*
G01X365050D02*
Y148750D01*
X368925D01*
X370165Y148125D01*
X370940Y147292D01*
X371250Y145625D01*
X370940Y143958D01*
X370010Y142917D01*
X368925Y142292D01*
X365050D01*
G01X368925D02*
X371250Y136250D01*
G01X378690Y148750D02*
X382410D01*
G01X380550D02*
Y136250D01*
G01X378690D02*
X382410D01*
G01X389850Y148750D02*
Y136250D01*
X396050D01*
G01X402250Y148750D02*
Y136250D01*
X408450D01*
G01X433560Y147708D02*
X432630Y148333D01*
X431545Y148750D01*
X430305D01*
X428910Y148125D01*
X427825Y147083D01*
X427050Y145833D01*
X426430Y143750D01*
X426275Y141875D01*
X426585Y140000D01*
X427050Y138750D01*
X427980Y137500D01*
X429065Y136667D01*
X430150Y136250D01*
X431235D01*
X432320Y136667D01*
X433250Y137291D01*
X434025Y138125D01*
G01X439295Y136250D02*
Y148750D01*
G01X445805D02*
Y136250D01*
G01Y142500D02*
X439295D01*
G01X451075Y136250D02*
X454950Y148750D01*
X458825Y136250D01*
G01X457430Y140625D02*
X452470D01*
G01X464250Y136250D02*
Y148750D01*
X468125D01*
X469365Y148125D01*
X470140Y147292D01*
X470450Y145625D01*
X470140Y143958D01*
X469210Y142917D01*
X468125Y142292D01*
X464250D01*
G01X468125D02*
X470450Y136250D01*
G01X479750Y148750D02*
Y136250D01*
G01X476185Y148750D02*
X483315D01*
G01X492150Y135833D02*
X491840Y136042D01*
Y136458D01*
X492150Y136667D01*
X492460Y136458D01*
Y136042D01*
X492150Y135833D01*
G01Y141458D02*
X491840Y141667D01*
Y142083D01*
X492150Y142292D01*
X492460Y142083D01*
Y141667D01*
X492150Y141458D01*
G01X516950Y148750D02*
Y136250D01*
G01X513385Y148750D02*
X520515D01*
G01X529350Y136250D02*
X528110Y136458D01*
X527025Y137291D01*
X526095Y138542D01*
X525475Y140000D01*
X525165Y141667D01*
Y143333D01*
X525475Y145000D01*
X526095Y146458D01*
X527025Y147708D01*
X528110Y148542D01*
X529350Y148750D01*
X530590Y148542D01*
X531675Y147708D01*
X532605Y146458D01*
X533225Y145000D01*
X533535Y143333D01*
Y141667D01*
X533225Y140000D01*
X532605Y138542D01*
X531675Y137291D01*
X530590Y136458D01*
X529350Y136250D01*
G01X538650D02*
Y148750D01*
X542370D01*
X543610Y148125D01*
X544540Y146667D01*
X544850Y145000D01*
X544540Y143333D01*
X543765Y142083D01*
X542370Y141458D01*
X538650D01*
G01X566550Y148750D02*
Y136250D01*
G01X564380Y144583D02*
X568720D01*
G01X578950Y136250D02*
X578020Y136458D01*
X577090Y137291D01*
X576470Y138750D01*
X576160Y140417D01*
X576470Y142083D01*
X577090Y143542D01*
X578020Y144375D01*
X578950Y144583D01*
X579880Y144375D01*
X580810Y143542D01*
X581430Y142083D01*
X581585Y140417D01*
X581430Y138750D01*
X580810Y137291D01*
X579880Y136458D01*
X578950Y136250D01*
G01X604990Y142917D02*
X605610Y143542D01*
X606075Y144583D01*
X606385Y146042D01*
X606075Y147292D01*
X605455Y148125D01*
X604370Y148750D01*
X600185D01*
Y136250D01*
X605300D01*
X606385Y137083D01*
X607005Y138333D01*
X607315Y139792D01*
X607005Y141250D01*
X606075Y142500D01*
X604990Y142917D01*
X600185D01*
G01X616150Y136250D02*
X614910Y136458D01*
X613825Y137291D01*
X612895Y138542D01*
X612275Y140000D01*
X611965Y141667D01*
Y143333D01*
X612275Y145000D01*
X612895Y146458D01*
X613825Y147708D01*
X614910Y148542D01*
X616150Y148750D01*
X617390Y148542D01*
X618475Y147708D01*
X619405Y146458D01*
X620025Y145000D01*
X620335Y143333D01*
Y141667D01*
X620025Y140000D01*
X619405Y138542D01*
X618475Y137291D01*
X617390Y136458D01*
X616150Y136250D01*
G01X628550Y148750D02*
Y136250D01*
G01X624985Y148750D02*
X632115D01*
G01X640950D02*
Y136250D01*
G01X637385Y148750D02*
X644515D01*
G01X653350Y136250D02*
X652110Y136458D01*
X651025Y137291D01*
X650095Y138542D01*
X649475Y140000D01*
X649165Y141667D01*
Y143333D01*
X649475Y145000D01*
X650095Y146458D01*
X651025Y147708D01*
X652110Y148542D01*
X653350Y148750D01*
X654590Y148542D01*
X655675Y147708D01*
X656605Y146458D01*
X657225Y145000D01*
X657535Y143333D01*
Y141667D01*
X657225Y140000D01*
X656605Y138542D01*
X655675Y137291D01*
X654590Y136458D01*
X653350Y136250D01*
G01X661720D02*
Y148750D01*
X665750Y138333D01*
X669780Y148750D01*
Y136250D01*
G01X382875Y111250D02*
X386750Y123750D01*
X390625Y111250D01*
G01X389230Y115625D02*
X384270D01*
G01X396050Y123750D02*
Y111250D01*
X402250D01*
G01X408450Y123750D02*
Y111250D01*
X414650D01*
G01X432940Y123750D02*
Y114792D01*
X433560Y112916D01*
X434800Y111667D01*
X436350Y111250D01*
X437900Y111667D01*
X439140Y112916D01*
X439760Y114792D01*
Y123750D01*
G01X445185Y111250D02*
Y123750D01*
X452315Y111250D01*
Y123750D01*
G01X459290D02*
X463010D01*
G01X461150D02*
Y111250D01*
G01X459290D02*
X463010D01*
G01X473550Y123750D02*
Y111250D01*
G01X469985Y123750D02*
X477115D01*
G01X482695Y112916D02*
X483935Y111875D01*
X485330Y111250D01*
X486570D01*
X487810Y111875D01*
X488740Y112916D01*
X489205Y114375D01*
X488895Y115833D01*
X488120Y117083D01*
X486725Y117917D01*
X484865Y118333D01*
X483780Y119167D01*
X483315Y120625D01*
X483625Y122083D01*
X484400Y123125D01*
X485485Y123750D01*
X486570D01*
X487655Y123333D01*
X488585Y122292D01*
G01X506875Y111250D02*
X510750Y123750D01*
X514625Y111250D01*
G01X513230Y115625D02*
X508270D01*
G01X520050Y111250D02*
Y123750D01*
X523925D01*
X525165Y123125D01*
X525940Y122292D01*
X526250Y120625D01*
X525940Y118958D01*
X525010Y117917D01*
X523925Y117292D01*
X520050D01*
G01X523925D02*
X526250Y111250D01*
G01X538650D02*
X532450D01*
Y123750D01*
X538650D01*
G01X536170Y117708D02*
X532450D01*
G01X558490Y123750D02*
X562210D01*
G01X560350D02*
Y111250D01*
G01X558490D02*
X562210D01*
G01X569185D02*
Y123750D01*
X576315Y111250D01*
Y123750D01*
G01X593520Y111250D02*
Y123750D01*
X597550Y113333D01*
X601580Y123750D01*
Y111250D01*
G01X608090Y123750D02*
X611810D01*
G01X609950D02*
Y111250D01*
G01X608090D02*
X611810D01*
G01X619250Y123750D02*
Y111250D01*
X625450D01*
G01X631495Y112916D02*
X632735Y111875D01*
X634130Y111250D01*
X635370D01*
X636610Y111875D01*
X637540Y112916D01*
X638005Y114375D01*
X637695Y115833D01*
X636920Y117083D01*
X635525Y117917D01*
X633665Y118333D01*
X632580Y119167D01*
X632115Y120625D01*
X632425Y122083D01*
X633200Y123125D01*
X634285Y123750D01*
X635370D01*
X636455Y123333D01*
X637385Y122292D01*
G01X453400Y105000D02*
Y55000D01*
G01X482540Y86250D02*
Y98750D01*
X485640D01*
X486880Y98125D01*
X487810Y97292D01*
X488585Y96042D01*
X489205Y94583D01*
X489360Y92500D01*
X489205Y90417D01*
X488585Y88958D01*
X487810Y87708D01*
X486880Y86875D01*
X485640Y86250D01*
X482540D01*
G01X495250D02*
Y98750D01*
X499125D01*
X500365Y98125D01*
X501140Y97292D01*
X501450Y95625D01*
X501140Y93958D01*
X500210Y92917D01*
X499125Y92292D01*
X495250D01*
G01X499125D02*
X501450Y86250D01*
G01X508890Y98750D02*
X512610D01*
G01X510750D02*
Y86250D01*
G01X508890D02*
X512610D01*
G01X520050Y98750D02*
Y86250D01*
X526250D01*
G01X532450Y98750D02*
Y86250D01*
X538650D01*
G01X551050D02*
X544850D01*
Y98750D01*
X551050D01*
G01X548570Y92708D02*
X544850D01*
G01X556940Y86250D02*
Y98750D01*
X560040D01*
X561280Y98125D01*
X562210Y97292D01*
X562985Y96042D01*
X563605Y94583D01*
X563760Y92500D01*
X563605Y90417D01*
X562985Y88958D01*
X562210Y87708D01*
X561280Y86875D01*
X560040Y86250D01*
X556940D01*
G01X568100Y82083D02*
X577400D01*
G01X581895Y87916D02*
X583135Y86875D01*
X584530Y86250D01*
X585770D01*
X587010Y86875D01*
X587940Y87916D01*
X588405Y89375D01*
X588095Y90833D01*
X587320Y92083D01*
X585925Y92917D01*
X584065Y93333D01*
X582980Y94167D01*
X582515Y95625D01*
X582825Y97083D01*
X583600Y98125D01*
X584685Y98750D01*
X585770D01*
X586855Y98333D01*
X587785Y97292D01*
G01X595690Y98750D02*
X599410D01*
G01X597550D02*
Y86250D01*
G01X595690D02*
X599410D01*
G01X607005Y98750D02*
X612895D01*
X607005Y86250D01*
X612895D01*
G01X625450D02*
X619250D01*
Y98750D01*
X625450D01*
G01X622970Y92708D02*
X619250D01*
G01X552135Y65417D02*
X556165D01*
G01X654900Y105000D02*
Y55000D01*
G01X684350Y61250D02*
Y73750D01*
X688070D01*
X689310Y73125D01*
X690240Y71667D01*
X690550Y70000D01*
X690240Y68333D01*
X689465Y67083D01*
X688070Y66458D01*
X684350D01*
G01X696750Y73750D02*
Y61250D01*
X702950D01*
G01X708375D02*
X712250Y73750D01*
X716125Y61250D01*
G01X714730Y65625D02*
X709770D01*
G01X724650Y73750D02*
Y61250D01*
G01X721085Y73750D02*
X728215D01*
G01X740150Y61250D02*
X733950D01*
Y73750D01*
X740150D01*
G01X737670Y67708D02*
X733950D01*
G01X746040Y61250D02*
Y73750D01*
X749140D01*
X750380Y73125D01*
X751310Y72292D01*
X752085Y71042D01*
X752705Y69583D01*
X752860Y67500D01*
X752705Y65417D01*
X752085Y63958D01*
X751310Y62708D01*
X750380Y61875D01*
X749140Y61250D01*
X746040D01*
G01X684350Y86250D02*
Y98750D01*
X688070D01*
X689310Y98125D01*
X690240Y96667D01*
X690550Y95000D01*
X690240Y93333D01*
X689465Y92083D01*
X688070Y91458D01*
X684350D01*
G01X696750Y98750D02*
Y86250D01*
X702950D01*
G01X708375D02*
X712250Y98750D01*
X716125Y86250D01*
G01X714730Y90625D02*
X709770D01*
G01X724650Y98750D02*
Y86250D01*
G01X721085Y98750D02*
X728215D01*
G01X740150Y86250D02*
X733950D01*
Y98750D01*
X740150D01*
G01X737670Y92708D02*
X733950D01*
G01X746040Y86250D02*
Y98750D01*
X749140D01*
X750380Y98125D01*
X751310Y97292D01*
X752085Y96042D01*
X752705Y94583D01*
X752860Y92500D01*
X752705Y90417D01*
X752085Y88958D01*
X751310Y87708D01*
X750380Y86875D01*
X749140Y86250D01*
X746040D01*
G01X782000Y105000D02*
Y55000D01*
G01X814550Y61250D02*
Y73750D01*
X812690Y71250D01*
G01Y61250D02*
X816410D01*
G01X826640D02*
X826950Y63958D01*
X827415Y66250D01*
X828035Y68333D01*
X828810Y70625D01*
X830050Y73750D01*
X823850D01*
G01X808350Y86250D02*
X807110Y86458D01*
X806025Y87291D01*
X805095Y88542D01*
X804475Y90000D01*
X804165Y91667D01*
Y93333D01*
X804475Y95000D01*
X805095Y96458D01*
X806025Y97708D01*
X807110Y98542D01*
X808350Y98750D01*
X809590Y98542D01*
X810675Y97708D01*
X811605Y96458D01*
X812225Y95000D01*
X812535Y93333D01*
Y91667D01*
X812225Y90000D01*
X811605Y88542D01*
X810675Y87291D01*
X809590Y86458D01*
X808350Y86250D01*
G01X809590Y89583D02*
X811450Y86250D01*
G01X820750Y98750D02*
Y86250D01*
G01X817185Y98750D02*
X824315D01*
G01X833150Y86250D02*
Y91875D01*
X830050Y98750D01*
G01X836250D02*
X833150Y91875D01*
M02*
