G04 ================== begin FILE IDENTIFICATION RECORD ==================*
G04 Layout Name:  D:/P1_Antoci/B - Proiect/allegro/P1_PCB.brd*
G04 Film Name:    SMTOP*
G04 File Format:  Gerber RS274X*
G04 File Origin:  Cadence Allegro 24.1-S001*
G04 Origin Date:  Sat Dec 14 11:29:44 2024*
G04 *
G04 Layer:  VIA CLASS/SOLDERMASK_TOP*
G04 Layer:  PIN/SOLDERMASK_TOP*
G04 Layer:  PACKAGE GEOMETRY/SOLDERMASK_TOP*
G04 Layer:  DRC ERROR CLASS/SOLDERMASK_TOP*
G04 Layer:  BOARD GEOMETRY/SOLDERMASK_TOP*
G04 *
G04 Offset:    (0.00 0.00)*
G04 Mirror:    No*
G04 Mode:      Positive*
G04 Rotation:  0*
G04 FullContactRelief:  No*
G04 UndefLineWidth:     0.10*
G04 ================== end FILE IDENTIFICATION RECORD ====================*
%FSLAX25Y25*MOIN*%
%IR0*IPPOS*OFA0.00000B0.00000*MIA0B0*SFA1.00000B1.00000*%
%ADD22R,.042X.114*%
%ADD10R,.076X.12*%
%ADD18C,.044*%
%ADD11C,.08*%
%ADD14R,.05512X.05512*%
%ADD23R,.22X.24*%
%ADD19R,.042X.03*%
%ADD16R,.03X.042*%
%ADD17R,.06X.05*%
%ADD21R,.061X.047*%
%ADD20R,.047X.061*%
%ADD15R,.065X.045*%
%ADD12R,.045X.065*%
%ADD13R,.084X.056*%
%LPD*%
G75*
G54D10*
X11000Y145000D03*
X21500D03*
X147000Y13000D03*
X136500D03*
G54D20*
X63543Y146000D03*
X56457D03*
G54D11*
X20000Y20000D03*
X140000Y140000D03*
G54D12*
X33260Y21000D03*
X40740D03*
X37260Y74000D03*
X19260D03*
X26740D03*
X23740Y106000D03*
X16260D03*
X37260Y109000D03*
X65260Y29000D03*
X57740Y17000D03*
X50260D03*
X66260Y10000D03*
X65260Y42000D03*
X57260Y73000D03*
X64740D03*
X44740Y74000D03*
Y109000D03*
X99740Y21000D03*
X92260D03*
X72740Y29000D03*
X73740Y10000D03*
X72740Y42000D03*
X88740Y78000D03*
X81260D03*
X82260Y144000D03*
X89740D03*
G54D21*
X64000Y125457D03*
Y132543D03*
G54D13*
X41000Y38173D03*
X96000Y58827D03*
G54D22*
X125984Y92661D03*
X144016D03*
X135000D03*
G54D23*
Y119236D03*
G54D14*
X36472Y59827D03*
X45528D03*
X91472Y37173D03*
X100528D03*
G54D15*
X38000Y89260D03*
Y96740D03*
X40000Y147740D03*
Y140260D03*
X81000Y25740D03*
Y18260D03*
X75000Y88260D03*
Y95740D03*
X82000Y126260D03*
Y133740D03*
X118000Y29740D03*
Y22260D03*
Y57740D03*
Y50260D03*
X132000Y55740D03*
Y48260D03*
X131000Y76740D03*
Y69260D03*
X146000Y76740D03*
Y69260D03*
G54D16*
X24740Y85669D03*
X17260D03*
X21000Y94331D03*
X38260Y129331D03*
X69260Y53669D03*
X55000Y86669D03*
X42000Y120669D03*
X51260Y95331D03*
X58740D03*
X45740Y129331D03*
X76740Y53669D03*
X95260Y88669D03*
X73000Y62331D03*
X99000Y97331D03*
X102740Y88669D03*
X108000Y140669D03*
X104260Y149331D03*
X111740D03*
G54D17*
X22000Y120063D03*
Y127937D03*
X147000Y48063D03*
Y55937D03*
G54D18*
X58000Y61000D03*
X58740Y80260D03*
X52000Y79000D03*
X44000Y82000D03*
X91000Y11000D03*
X78000Y48000D03*
X96000Y71000D03*
X87000Y70000D03*
Y98000D03*
X97000Y106000D03*
Y126000D03*
X128000Y32000D03*
X118000Y13000D03*
X120000Y65190D03*
X123000Y139000D03*
X140000Y39000D03*
X139000Y80000D03*
G54D19*
X66331Y111000D03*
X57669Y107260D03*
Y114740D03*
X80669Y112000D03*
X89331Y115740D03*
Y108260D03*
X100669Y116000D03*
X105669Y74000D03*
X114331Y77740D03*
Y70260D03*
X109331Y119740D03*
Y112260D03*
M02*
