G04 ================== begin FILE IDENTIFICATION RECORD ==================*
G04 Layout Name:  D:/P1_Antoci/B - Proiect/allegro/P1_PCB.brd*
G04 Film Name:    SSTOP*
G04 File Format:  Gerber RS274X*
G04 File Origin:  Cadence Allegro 24.1-S001*
G04 Origin Date:  Sat Dec 14 11:29:44 2024*
G04 *
G04 Layer:  USER PART NUMBER/SILKSCREEN_TOP*
G04 Layer:  TOLERANCE/SILKSCREEN_TOP*
G04 Layer:  REF DES/SILKSCREEN_TOP*
G04 Layer:  PACKAGE GEOMETRY/SILKSCREEN_TOP*
G04 Layer:  DEVICE TYPE/SILKSCREEN_TOP*
G04 Layer:  COMPONENT VALUE/SILKSCREEN_TOP*
G04 Layer:  BOARD GEOMETRY/SILKSCREEN_TOP*
G04 *
G04 Offset:    (0.00 0.00)*
G04 Mirror:    No*
G04 Mode:      Positive*
G04 Rotation:  0*
G04 FullContactRelief:  No*
G04 UndefLineWidth:     0.10*
G04 ================== end FILE IDENTIFICATION RECORD ====================*
%FSLAX25Y25*MOIN*%
%IR0*IPPOS*OFA0.00000B0.00000*MIA0B0*SFA1.00000B1.00000*%
%ADD10C,.005*%
%ADD11C,.006*%
%ADD12C,.00394*%
%ADD13C,.00984*%
%ADD14C,.00787*%
G75*
%LPD*%
G75*
G54D10*
G01X5000Y134808D02*
X8100Y133850D01*
X5000Y132892D01*
G01X6085Y133237D02*
Y134463D01*
G01X5000Y131402D02*
X7067D01*
G01X6550D02*
X6808Y131248D01*
X7015Y131018D01*
X7067Y130712D01*
X7015Y130443D01*
X6808Y130213D01*
X6447Y130098D01*
X5000D01*
G01X8100Y127650D02*
X5000D01*
G01X7067Y128187D02*
Y127113D01*
G01X5000Y124550D02*
X5052Y124780D01*
X5258Y125010D01*
X5620Y125163D01*
X6033Y125240D01*
X6447Y125163D01*
X6808Y125010D01*
X7015Y124780D01*
X7067Y124550D01*
X7015Y124320D01*
X6808Y124090D01*
X6447Y123937D01*
X6033Y123898D01*
X5620Y123937D01*
X5258Y124090D01*
X5052Y124320D01*
X5000Y124550D01*
G01X6808Y120837D02*
X7015Y121105D01*
X7067Y121335D01*
X6963Y121642D01*
X6757Y121872D01*
X6395Y122025D01*
X6033Y122063D01*
X5672Y122025D01*
X5362Y121872D01*
X5103Y121642D01*
X5000Y121335D01*
X5103Y121067D01*
X5310Y120837D01*
G01X7067Y118350D02*
X5000D01*
G01X7893D02*
X7945Y118427D01*
X8048D01*
X8100Y118350D01*
X8048Y118273D01*
X7945D01*
X7893Y118350D01*
G01X6550Y111920D02*
Y111153D01*
X5620D01*
X5310Y111383D01*
X5103Y111652D01*
X5000Y112035D01*
X5103Y112418D01*
X5310Y112687D01*
X5620Y112917D01*
X5982Y113070D01*
X6395Y113147D01*
X6757D01*
X7067Y113070D01*
X7428Y112917D01*
X7738Y112687D01*
X7945Y112457D01*
X8100Y112150D01*
Y111882D01*
X7997Y111575D01*
X7790Y111345D01*
G01X6395Y109625D02*
Y108398D01*
X6757Y108513D01*
X6963Y108705D01*
X7067Y108973D01*
X7015Y109242D01*
X6860Y109472D01*
X6498Y109625D01*
X6188Y109702D01*
X5878D01*
X5568Y109625D01*
X5258Y109433D01*
X5052Y109203D01*
X5000Y108935D01*
X5103Y108667D01*
X5413Y108398D01*
G01X5000Y105950D02*
X5052Y106180D01*
X5258Y106410D01*
X5620Y106563D01*
X6033Y106640D01*
X6447Y106563D01*
X6808Y106410D01*
X7015Y106180D01*
X7067Y105950D01*
X7015Y105720D01*
X6808Y105490D01*
X6447Y105337D01*
X6033Y105298D01*
X5620Y105337D01*
X5258Y105490D01*
X5052Y105720D01*
X5000Y105950D01*
G01Y103387D02*
X7067D01*
G01X6653D02*
X6860Y103195D01*
X7015Y103003D01*
X7067Y102735D01*
X7015Y102543D01*
X6860Y102313D01*
G01X4225Y100287D02*
X4018Y100018D01*
X3967Y99712D01*
X4018Y99443D01*
X4277Y99213D01*
X4638Y99060D01*
X7067D01*
G01X6653D02*
X6860Y99213D01*
X7015Y99443D01*
X7067Y99712D01*
X6963Y100018D01*
X6757Y100210D01*
X6395Y100363D01*
X6033Y100440D01*
X5723Y100402D01*
X5362Y100248D01*
X5103Y100018D01*
X5000Y99712D01*
X5052Y99482D01*
X5258Y99213D01*
X5465Y99060D01*
G01X6395Y97225D02*
Y95998D01*
X6757Y96113D01*
X6963Y96305D01*
X7067Y96573D01*
X7015Y96842D01*
X6860Y97072D01*
X6498Y97225D01*
X6188Y97302D01*
X5878D01*
X5568Y97225D01*
X5258Y97033D01*
X5052Y96803D01*
X5000Y96535D01*
X5103Y96267D01*
X5413Y95998D01*
G01X6033Y94048D02*
Y93052D01*
G01X7842Y89607D02*
X7997Y89837D01*
X8100Y90105D01*
Y90412D01*
X7945Y90757D01*
X7687Y91025D01*
X7377Y91217D01*
X6860Y91370D01*
X6395Y91408D01*
X5930Y91332D01*
X5620Y91217D01*
X5310Y90987D01*
X5103Y90718D01*
X5000Y90450D01*
Y90182D01*
X5103Y89913D01*
X5258Y89683D01*
X5465Y89492D01*
G01X5000Y87350D02*
X5052Y87580D01*
X5258Y87810D01*
X5620Y87963D01*
X6033Y88040D01*
X6447Y87963D01*
X6808Y87810D01*
X7015Y87580D01*
X7067Y87350D01*
X7015Y87120D01*
X6808Y86890D01*
X6447Y86737D01*
X6033Y86698D01*
X5620Y86737D01*
X5258Y86890D01*
X5052Y87120D01*
X5000Y87350D01*
G01X5362Y84825D02*
X5155Y84633D01*
X5000Y84365D01*
Y84135D01*
X5103Y83905D01*
X5258Y83752D01*
X5465Y83675D01*
X5775Y83713D01*
X5930Y83867D01*
X6240Y84557D01*
X6602Y84710D01*
X6860Y84633D01*
X7015Y84480D01*
X7067Y84250D01*
X7015Y84020D01*
X6860Y83790D01*
G01X5000Y82300D02*
X7067D01*
G01X6498D02*
X6757Y82185D01*
X6963Y81993D01*
X7067Y81725D01*
X6963Y81457D01*
X6757Y81265D01*
X6498Y81150D01*
X5000D01*
G01X6498D02*
X6757Y81035D01*
X6963Y80843D01*
X7067Y80575D01*
X6963Y80307D01*
X6757Y80115D01*
X6447Y80000D01*
X5000D01*
G01X7067Y78050D02*
X5000D01*
G01X7893D02*
X7945Y78127D01*
X8048D01*
X8100Y78050D01*
X8048Y77973D01*
X7945D01*
X7893Y78050D01*
G01X5000Y75602D02*
X7067D01*
G01X6550D02*
X6808Y75448D01*
X7015Y75218D01*
X7067Y74912D01*
X7015Y74643D01*
X6808Y74413D01*
X6447Y74298D01*
X5000D01*
G01Y68290D02*
X8100D01*
X5878Y69708D01*
Y67792D01*
G01X5620Y66493D02*
X5258Y66263D01*
X5052Y65957D01*
X5000Y65612D01*
X5052Y65305D01*
X5310Y64998D01*
X5620Y64807D01*
X5930Y64768D01*
X6292Y64845D01*
X6550Y65113D01*
X6653Y65382D01*
Y65727D01*
G01Y65382D02*
X6808Y65152D01*
X7067Y64960D01*
X7377Y64883D01*
X7687Y64960D01*
X7945Y65152D01*
X8100Y65497D01*
X8048Y65842D01*
X7842Y66187D01*
G01X5000Y62090D02*
X8100D01*
X5878Y63508D01*
Y61592D01*
G01X5000Y60293D02*
X8100D01*
Y59527D01*
X7945Y59220D01*
X7738Y58990D01*
X7428Y58798D01*
X7067Y58645D01*
X6550Y58607D01*
X6033Y58645D01*
X5672Y58798D01*
X5362Y58990D01*
X5155Y59220D01*
X5000Y59527D01*
Y60293D01*
G01X7842Y52407D02*
X7997Y52637D01*
X8100Y52905D01*
Y53212D01*
X7945Y53557D01*
X7687Y53825D01*
X7377Y54017D01*
X6860Y54170D01*
X6395Y54208D01*
X5930Y54132D01*
X5620Y54017D01*
X5310Y53787D01*
X5103Y53518D01*
X5000Y53250D01*
Y52982D01*
X5103Y52713D01*
X5258Y52483D01*
X5465Y52292D01*
G01X5000Y49383D02*
Y50917D01*
X8100D01*
Y49383D01*
G01X6602Y49997D02*
Y50917D01*
G01X5000Y47778D02*
X8100D01*
Y46322D01*
G01X6602Y46858D02*
Y47778D01*
G01X7583Y44678D02*
X7893Y44448D01*
X8048Y44180D01*
X8100Y43873D01*
X7997Y43490D01*
X7738Y43222D01*
X7428Y43145D01*
X7118Y43183D01*
X6860Y43337D01*
X6343Y44103D01*
X5982Y44448D01*
X5465Y44678D01*
X5000Y44755D01*
Y43145D01*
G01Y41617D02*
X8100D01*
Y40697D01*
X7945Y40390D01*
X7583Y40160D01*
X7170Y40083D01*
X6757Y40160D01*
X6447Y40352D01*
X6292Y40697D01*
Y41617D01*
G01X7583Y35378D02*
X7893Y35148D01*
X8048Y34880D01*
X8100Y34573D01*
X7997Y34190D01*
X7738Y33922D01*
X7428Y33845D01*
X7118Y33883D01*
X6860Y34037D01*
X6343Y34803D01*
X5982Y35148D01*
X5465Y35378D01*
X5000Y35455D01*
Y33845D01*
G01X8100Y31550D02*
X7997Y31857D01*
X7738Y32087D01*
X7428Y32240D01*
X7015Y32355D01*
X6550Y32393D01*
X6085Y32355D01*
X5672Y32240D01*
X5362Y32087D01*
X5103Y31857D01*
X5000Y31550D01*
X5103Y31243D01*
X5362Y31013D01*
X5672Y30860D01*
X6085Y30745D01*
X6550Y30707D01*
X7015Y30745D01*
X7428Y30860D01*
X7738Y31013D01*
X7997Y31243D01*
X8100Y31550D01*
G01X7583Y29178D02*
X7893Y28948D01*
X8048Y28680D01*
X8100Y28373D01*
X7997Y27990D01*
X7738Y27722D01*
X7428Y27645D01*
X7118Y27683D01*
X6860Y27837D01*
X6343Y28603D01*
X5982Y28948D01*
X5465Y29178D01*
X5000Y29255D01*
Y27645D01*
G01Y24890D02*
X8100D01*
X5878Y26308D01*
Y24392D01*
G01X6033Y22748D02*
Y21752D01*
G01X7583Y19878D02*
X7893Y19648D01*
X8048Y19380D01*
X8100Y19073D01*
X7997Y18690D01*
X7738Y18422D01*
X7428Y18345D01*
X7118Y18383D01*
X6860Y18537D01*
X6343Y19303D01*
X5982Y19648D01*
X5465Y19878D01*
X5000Y19955D01*
Y18345D01*
G01X8100Y16050D02*
X7997Y16357D01*
X7738Y16587D01*
X7428Y16740D01*
X7015Y16855D01*
X6550Y16893D01*
X6085Y16855D01*
X5672Y16740D01*
X5362Y16587D01*
X5103Y16357D01*
X5000Y16050D01*
X5103Y15743D01*
X5362Y15513D01*
X5672Y15360D01*
X6085Y15245D01*
X6550Y15207D01*
X7015Y15245D01*
X7428Y15360D01*
X7738Y15513D01*
X7997Y15743D01*
X8100Y16050D01*
G01X7583Y13678D02*
X7893Y13448D01*
X8048Y13180D01*
X8100Y12873D01*
X7997Y12490D01*
X7738Y12222D01*
X7428Y12145D01*
X7118Y12183D01*
X6860Y12337D01*
X6343Y13103D01*
X5982Y13448D01*
X5465Y13678D01*
X5000Y13755D01*
Y12145D01*
G01X5465Y10693D02*
X5207Y10463D01*
X5052Y10195D01*
X5000Y9850D01*
X5103Y9505D01*
X5310Y9237D01*
X5672Y9045D01*
X6085Y9007D01*
X6498Y9083D01*
X6757Y9275D01*
X6963Y9543D01*
X7015Y9812D01*
X6963Y10080D01*
X6757Y10425D01*
X8100Y10310D01*
Y9275D01*
G01X33383Y13000D02*
Y16100D01*
X34342D01*
X34648Y15945D01*
X34840Y15738D01*
X34917Y15325D01*
X34840Y14912D01*
X34610Y14653D01*
X34342Y14498D01*
X33383D01*
G01X34342D02*
X34917Y13000D01*
G01X36522Y15583D02*
X36752Y15893D01*
X37020Y16048D01*
X37327Y16100D01*
X37710Y15997D01*
X37978Y15738D01*
X38055Y15428D01*
X38017Y15118D01*
X37863Y14860D01*
X37097Y14343D01*
X36752Y13982D01*
X36522Y13465D01*
X36445Y13000D01*
X38055D01*
G01X40350D02*
Y16100D01*
X39890Y15480D01*
G01Y13000D02*
X40810D01*
G01X33383D02*
Y16100D01*
X34342D01*
X34648Y15945D01*
X34840Y15738D01*
X34917Y15325D01*
X34840Y14912D01*
X34610Y14653D01*
X34342Y14498D01*
X33383D01*
G01X34342D02*
X34917Y13000D01*
G01X36522Y15583D02*
X36752Y15893D01*
X37020Y16048D01*
X37327Y16100D01*
X37710Y15997D01*
X37978Y15738D01*
X38055Y15428D01*
X38017Y15118D01*
X37863Y14860D01*
X37097Y14343D01*
X36752Y13982D01*
X36522Y13465D01*
X36445Y13000D01*
X38055D01*
G01X40350D02*
Y16100D01*
X39890Y15480D01*
G01Y13000D02*
X40810D01*
G01X37383Y67000D02*
Y70100D01*
X38342D01*
X38648Y69945D01*
X38840Y69738D01*
X38917Y69325D01*
X38840Y68912D01*
X38610Y68653D01*
X38342Y68498D01*
X37383D01*
G01X38342D02*
X38917Y67000D01*
G01X41250D02*
Y70100D01*
X40790Y69480D01*
G01Y67000D02*
X41710D01*
G01X43698Y67362D02*
X43967Y67103D01*
X44273Y67000D01*
X44580Y67103D01*
X44848Y67413D01*
X45040Y67878D01*
X45117Y68343D01*
Y68912D01*
X45040Y69377D01*
X44848Y69790D01*
X44618Y69997D01*
X44350Y70100D01*
X44043Y69997D01*
X43813Y69790D01*
X43660Y69480D01*
X43583Y69067D01*
X43660Y68705D01*
X43852Y68343D01*
X44082Y68137D01*
X44350Y68085D01*
X44657Y68188D01*
X44887Y68447D01*
X45117Y68912D01*
G01X37383Y67000D02*
Y70100D01*
X38342D01*
X38648Y69945D01*
X38840Y69738D01*
X38917Y69325D01*
X38840Y68912D01*
X38610Y68653D01*
X38342Y68498D01*
X37383D01*
G01X38342D02*
X38917Y67000D01*
G01X41250D02*
Y70100D01*
X40790Y69480D01*
G01Y67000D02*
X41710D01*
G01X43698Y67362D02*
X43967Y67103D01*
X44273Y67000D01*
X44580Y67103D01*
X44848Y67413D01*
X45040Y67878D01*
X45117Y68343D01*
Y68912D01*
X45040Y69377D01*
X44848Y69790D01*
X44618Y69997D01*
X44350Y70100D01*
X44043Y69997D01*
X43813Y69790D01*
X43660Y69480D01*
X43583Y69067D01*
X43660Y68705D01*
X43852Y68343D01*
X44082Y68137D01*
X44350Y68085D01*
X44657Y68188D01*
X44887Y68447D01*
X45117Y68912D01*
G01X18383Y66000D02*
Y69100D01*
X19342D01*
X19648Y68945D01*
X19840Y68738D01*
X19917Y68325D01*
X19840Y67912D01*
X19610Y67653D01*
X19342Y67498D01*
X18383D01*
G01X19342D02*
X19917Y66000D01*
G01X22250D02*
Y69100D01*
X21790Y68480D01*
G01Y66000D02*
X22710D01*
G01X24622Y67292D02*
X24890Y67653D01*
X25120Y67860D01*
X25427Y67963D01*
X25695Y67860D01*
X25887Y67653D01*
X26040Y67343D01*
X26078Y66982D01*
X26040Y66672D01*
X25887Y66362D01*
X25657Y66103D01*
X25388Y66000D01*
X25082Y66103D01*
X24813Y66413D01*
X24660Y66878D01*
X24622Y67395D01*
X24698Y68067D01*
X24813Y68428D01*
X25005Y68790D01*
X25273Y69048D01*
X25542Y69100D01*
X25810Y68997D01*
X26002Y68738D01*
G01X18383Y66000D02*
Y69100D01*
X19342D01*
X19648Y68945D01*
X19840Y68738D01*
X19917Y68325D01*
X19840Y67912D01*
X19610Y67653D01*
X19342Y67498D01*
X18383D01*
G01X19342D02*
X19917Y66000D01*
G01X22250D02*
Y69100D01*
X21790Y68480D01*
G01Y66000D02*
X22710D01*
G01X24622Y67292D02*
X24890Y67653D01*
X25120Y67860D01*
X25427Y67963D01*
X25695Y67860D01*
X25887Y67653D01*
X26040Y67343D01*
X26078Y66982D01*
X26040Y66672D01*
X25887Y66362D01*
X25657Y66103D01*
X25388Y66000D01*
X25082Y66103D01*
X24813Y66413D01*
X24660Y66878D01*
X24622Y67395D01*
X24698Y68067D01*
X24813Y68428D01*
X25005Y68790D01*
X25273Y69048D01*
X25542Y69100D01*
X25810Y68997D01*
X26002Y68738D01*
G01X28000Y91693D02*
X31100D01*
Y90927D01*
X30945Y90620D01*
X30738Y90390D01*
X30428Y90198D01*
X30067Y90045D01*
X29550Y90007D01*
X29033Y90045D01*
X28672Y90198D01*
X28362Y90390D01*
X28155Y90620D01*
X28000Y90927D01*
Y91693D01*
G01X28465Y88593D02*
X28207Y88363D01*
X28052Y88095D01*
X28000Y87750D01*
X28103Y87405D01*
X28310Y87137D01*
X28672Y86945D01*
X29085Y86907D01*
X29498Y86983D01*
X29757Y87175D01*
X29963Y87443D01*
X30015Y87712D01*
X29963Y87980D01*
X29757Y88325D01*
X31100Y88210D01*
Y87175D01*
G01X28000Y91693D02*
X31100D01*
Y90927D01*
X30945Y90620D01*
X30738Y90390D01*
X30428Y90198D01*
X30067Y90045D01*
X29550Y90007D01*
X29033Y90045D01*
X28672Y90198D01*
X28362Y90390D01*
X28155Y90620D01*
X28000Y90927D01*
Y91693D01*
G01X28465Y88593D02*
X28207Y88363D01*
X28052Y88095D01*
X28000Y87750D01*
X28103Y87405D01*
X28310Y87137D01*
X28672Y86945D01*
X29085Y86907D01*
X29498Y86983D01*
X29757Y87175D01*
X29963Y87443D01*
X30015Y87712D01*
X29963Y87980D01*
X29757Y88325D01*
X31100Y88210D01*
Y87175D01*
G01X27000Y109617D02*
X30100D01*
Y108658D01*
X29945Y108352D01*
X29738Y108160D01*
X29325Y108083D01*
X28912Y108160D01*
X28653Y108390D01*
X28498Y108658D01*
Y109617D01*
G01Y108658D02*
X27000Y108083D01*
G01Y105750D02*
X30100D01*
X29480Y106210D01*
G01X27000D02*
Y105290D01*
G01X27465Y103493D02*
X27207Y103263D01*
X27052Y102995D01*
X27000Y102650D01*
X27103Y102305D01*
X27310Y102037D01*
X27672Y101845D01*
X28085Y101807D01*
X28498Y101883D01*
X28757Y102075D01*
X28963Y102343D01*
X29015Y102612D01*
X28963Y102880D01*
X28757Y103225D01*
X30100Y103110D01*
Y102075D01*
G01X27000Y109617D02*
X30100D01*
Y108658D01*
X29945Y108352D01*
X29738Y108160D01*
X29325Y108083D01*
X28912Y108160D01*
X28653Y108390D01*
X28498Y108658D01*
Y109617D01*
G01Y108658D02*
X27000Y108083D01*
G01Y105750D02*
X30100D01*
X29480Y106210D01*
G01X27000D02*
Y105290D01*
G01X27465Y103493D02*
X27207Y103263D01*
X27052Y102995D01*
X27000Y102650D01*
X27103Y102305D01*
X27310Y102037D01*
X27672Y101845D01*
X28085Y101807D01*
X28498Y101883D01*
X28757Y102075D01*
X28963Y102343D01*
X29015Y102612D01*
X28963Y102880D01*
X28757Y103225D01*
X30100Y103110D01*
Y102075D01*
G01X36383Y113000D02*
Y116100D01*
X37342D01*
X37648Y115945D01*
X37840Y115738D01*
X37917Y115325D01*
X37840Y114912D01*
X37610Y114653D01*
X37342Y114498D01*
X36383D01*
G01X37342D02*
X37917Y113000D01*
G01X40250D02*
Y116100D01*
X39790Y115480D01*
G01Y113000D02*
X40710D01*
G01X42507Y113620D02*
X42737Y113258D01*
X43043Y113052D01*
X43388Y113000D01*
X43695Y113052D01*
X44002Y113310D01*
X44193Y113620D01*
X44232Y113930D01*
X44155Y114292D01*
X43887Y114550D01*
X43618Y114653D01*
X43273D01*
G01X43618D02*
X43848Y114808D01*
X44040Y115067D01*
X44117Y115377D01*
X44040Y115687D01*
X43848Y115945D01*
X43503Y116100D01*
X43158Y116048D01*
X42813Y115842D01*
G01X36383Y113000D02*
Y116100D01*
X37342D01*
X37648Y115945D01*
X37840Y115738D01*
X37917Y115325D01*
X37840Y114912D01*
X37610Y114653D01*
X37342Y114498D01*
X36383D01*
G01X37342D02*
X37917Y113000D01*
G01X40250D02*
Y116100D01*
X39790Y115480D01*
G01Y113000D02*
X40710D01*
G01X42507Y113620D02*
X42737Y113258D01*
X43043Y113052D01*
X43388Y113000D01*
X43695Y113052D01*
X44002Y113310D01*
X44193Y113620D01*
X44232Y113930D01*
X44155Y114292D01*
X43887Y114550D01*
X43618Y114653D01*
X43273D01*
G01X43618D02*
X43848Y114808D01*
X44040Y115067D01*
X44117Y115377D01*
X44040Y115687D01*
X43848Y115945D01*
X43503Y116100D01*
X43158Y116048D01*
X42813Y115842D01*
G01X27633Y138320D02*
X27825Y138010D01*
X28055Y137803D01*
X28323Y137700D01*
X28630Y137803D01*
X28860Y138010D01*
X29090Y138320D01*
X29167Y138733D01*
Y140800D01*
G01X30772Y140283D02*
X31002Y140593D01*
X31270Y140748D01*
X31577Y140800D01*
X31960Y140697D01*
X32228Y140438D01*
X32305Y140128D01*
X32267Y139818D01*
X32113Y139560D01*
X31347Y139043D01*
X31002Y138682D01*
X30772Y138165D01*
X30695Y137700D01*
X32305D01*
G01X27633Y138320D02*
X27825Y138010D01*
X28055Y137803D01*
X28323Y137700D01*
X28630Y137803D01*
X28860Y138010D01*
X29090Y138320D01*
X29167Y138733D01*
Y140800D01*
G01X30772Y140283D02*
X31002Y140593D01*
X31270Y140748D01*
X31577Y140800D01*
X31960Y140697D01*
X32228Y140438D01*
X32305Y140128D01*
X32267Y139818D01*
X32113Y139560D01*
X31347Y139043D01*
X31002Y138682D01*
X30772Y138165D01*
X30695Y137700D01*
X32305D01*
G01X27633Y138320D02*
X27825Y138010D01*
X28055Y137803D01*
X28323Y137700D01*
X28630Y137803D01*
X28860Y138010D01*
X29090Y138320D01*
X29167Y138733D01*
Y140800D01*
G01X30772Y140283D02*
X31002Y140593D01*
X31270Y140748D01*
X31577Y140800D01*
X31960Y140697D01*
X32228Y140438D01*
X32305Y140128D01*
X32267Y139818D01*
X32113Y139560D01*
X31347Y139043D01*
X31002Y138682D01*
X30772Y138165D01*
X30695Y137700D01*
X32305D01*
G01X28000Y126393D02*
X31100D01*
Y125627D01*
X30945Y125320D01*
X30738Y125090D01*
X30428Y124898D01*
X30067Y124745D01*
X29550Y124707D01*
X29033Y124745D01*
X28672Y124898D01*
X28362Y125090D01*
X28155Y125320D01*
X28000Y125627D01*
Y126393D01*
G01Y121990D02*
X31100D01*
X28878Y123408D01*
Y121492D01*
G01X65383Y21000D02*
Y24100D01*
X66342D01*
X66648Y23945D01*
X66840Y23738D01*
X66917Y23325D01*
X66840Y22912D01*
X66610Y22653D01*
X66342Y22498D01*
X65383D01*
G01X66342D02*
X66917Y21000D01*
G01X68522Y23583D02*
X68752Y23893D01*
X69020Y24048D01*
X69327Y24100D01*
X69710Y23997D01*
X69978Y23738D01*
X70055Y23428D01*
X70017Y23118D01*
X69863Y22860D01*
X69097Y22343D01*
X68752Y21982D01*
X68522Y21465D01*
X68445Y21000D01*
X70055D01*
G01X72350Y24100D02*
X72043Y23997D01*
X71813Y23738D01*
X71660Y23428D01*
X71545Y23015D01*
X71507Y22550D01*
X71545Y22085D01*
X71660Y21672D01*
X71813Y21362D01*
X72043Y21103D01*
X72350Y21000D01*
X72657Y21103D01*
X72887Y21362D01*
X73040Y21672D01*
X73155Y22085D01*
X73193Y22550D01*
X73155Y23015D01*
X73040Y23428D01*
X72887Y23738D01*
X72657Y23997D01*
X72350Y24100D01*
G01X65383Y21000D02*
Y24100D01*
X66342D01*
X66648Y23945D01*
X66840Y23738D01*
X66917Y23325D01*
X66840Y22912D01*
X66610Y22653D01*
X66342Y22498D01*
X65383D01*
G01X66342D02*
X66917Y21000D01*
G01X68522Y23583D02*
X68752Y23893D01*
X69020Y24048D01*
X69327Y24100D01*
X69710Y23997D01*
X69978Y23738D01*
X70055Y23428D01*
X70017Y23118D01*
X69863Y22860D01*
X69097Y22343D01*
X68752Y21982D01*
X68522Y21465D01*
X68445Y21000D01*
X70055D01*
G01X72350Y24100D02*
X72043Y23997D01*
X71813Y23738D01*
X71660Y23428D01*
X71545Y23015D01*
X71507Y22550D01*
X71545Y22085D01*
X71660Y21672D01*
X71813Y21362D01*
X72043Y21103D01*
X72350Y21000D01*
X72657Y21103D01*
X72887Y21362D01*
X73040Y21672D01*
X73155Y22085D01*
X73193Y22550D01*
X73155Y23015D01*
X73040Y23428D01*
X72887Y23738D01*
X72657Y23997D01*
X72350Y24100D01*
G01X50383Y9000D02*
Y12100D01*
X51342D01*
X51648Y11945D01*
X51840Y11738D01*
X51917Y11325D01*
X51840Y10912D01*
X51610Y10653D01*
X51342Y10498D01*
X50383D01*
G01X51342D02*
X51917Y9000D01*
G01X53522Y11583D02*
X53752Y11893D01*
X54020Y12048D01*
X54327Y12100D01*
X54710Y11997D01*
X54978Y11738D01*
X55055Y11428D01*
X55017Y11118D01*
X54863Y10860D01*
X54097Y10343D01*
X53752Y9982D01*
X53522Y9465D01*
X53445Y9000D01*
X55055D01*
G01X56507Y9620D02*
X56737Y9258D01*
X57043Y9052D01*
X57388Y9000D01*
X57695Y9052D01*
X58002Y9310D01*
X58193Y9620D01*
X58232Y9930D01*
X58155Y10292D01*
X57887Y10550D01*
X57618Y10653D01*
X57273D01*
G01X57618D02*
X57848Y10808D01*
X58040Y11067D01*
X58117Y11377D01*
X58040Y11687D01*
X57848Y11945D01*
X57503Y12100D01*
X57158Y12048D01*
X56813Y11842D01*
G01X50383Y9000D02*
Y12100D01*
X51342D01*
X51648Y11945D01*
X51840Y11738D01*
X51917Y11325D01*
X51840Y10912D01*
X51610Y10653D01*
X51342Y10498D01*
X50383D01*
G01X51342D02*
X51917Y9000D01*
G01X53522Y11583D02*
X53752Y11893D01*
X54020Y12048D01*
X54327Y12100D01*
X54710Y11997D01*
X54978Y11738D01*
X55055Y11428D01*
X55017Y11118D01*
X54863Y10860D01*
X54097Y10343D01*
X53752Y9982D01*
X53522Y9465D01*
X53445Y9000D01*
X55055D01*
G01X56507Y9620D02*
X56737Y9258D01*
X57043Y9052D01*
X57388Y9000D01*
X57695Y9052D01*
X58002Y9310D01*
X58193Y9620D01*
X58232Y9930D01*
X58155Y10292D01*
X57887Y10550D01*
X57618Y10653D01*
X57273D01*
G01X57618D02*
X57848Y10808D01*
X58040Y11067D01*
X58117Y11377D01*
X58040Y11687D01*
X57848Y11945D01*
X57503Y12100D01*
X57158Y12048D01*
X56813Y11842D01*
G01X65383Y15000D02*
Y18100D01*
X66342D01*
X66648Y17945D01*
X66840Y17738D01*
X66917Y17325D01*
X66840Y16912D01*
X66610Y16653D01*
X66342Y16498D01*
X65383D01*
G01X66342D02*
X66917Y15000D01*
G01X69250D02*
Y18100D01*
X68790Y17480D01*
G01Y15000D02*
X69710D01*
G01X72810D02*
Y18100D01*
X71392Y15878D01*
X73308D01*
G01X65383Y15000D02*
Y18100D01*
X66342D01*
X66648Y17945D01*
X66840Y17738D01*
X66917Y17325D01*
X66840Y16912D01*
X66610Y16653D01*
X66342Y16498D01*
X65383D01*
G01X66342D02*
X66917Y15000D01*
G01X69250D02*
Y18100D01*
X68790Y17480D01*
G01Y15000D02*
X69710D01*
G01X72810D02*
Y18100D01*
X71392Y15878D01*
X73308D01*
G01X65383Y34000D02*
Y37100D01*
X66342D01*
X66648Y36945D01*
X66840Y36738D01*
X66917Y36325D01*
X66840Y35912D01*
X66610Y35653D01*
X66342Y35498D01*
X65383D01*
G01X66342D02*
X66917Y34000D01*
G01X69250D02*
Y37100D01*
X68790Y36480D01*
G01Y34000D02*
X69710D01*
G01X72273D02*
X72350Y34672D01*
X72465Y35240D01*
X72618Y35757D01*
X72810Y36325D01*
X73117Y37100D01*
X71583D01*
G01X65383Y34000D02*
Y37100D01*
X66342D01*
X66648Y36945D01*
X66840Y36738D01*
X66917Y36325D01*
X66840Y35912D01*
X66610Y35653D01*
X66342Y35498D01*
X65383D01*
G01X66342D02*
X66917Y34000D01*
G01X69250D02*
Y37100D01*
X68790Y36480D01*
G01Y34000D02*
X69710D01*
G01X72273D02*
X72350Y34672D01*
X72465Y35240D01*
X72618Y35757D01*
X72810Y36325D01*
X73117Y37100D01*
X71583D01*
G01X62000Y60850D02*
X62052Y61157D01*
X62258Y61425D01*
X62568Y61655D01*
X62930Y61808D01*
X63343Y61885D01*
X63757D01*
X64170Y61808D01*
X64532Y61655D01*
X64842Y61425D01*
X65048Y61157D01*
X65100Y60850D01*
X65048Y60543D01*
X64842Y60275D01*
X64532Y60045D01*
X64170Y59892D01*
X63757Y59815D01*
X63343D01*
X62930Y59892D01*
X62568Y60045D01*
X62258Y60275D01*
X62052Y60543D01*
X62000Y60850D01*
G01X62827Y60543D02*
X62000Y60083D01*
G01Y57750D02*
X65100D01*
X64480Y58210D01*
G01X62000D02*
Y57290D01*
G01X65100Y54650D02*
X64997Y54957D01*
X64738Y55187D01*
X64428Y55340D01*
X64015Y55455D01*
X63550Y55493D01*
X63085Y55455D01*
X62672Y55340D01*
X62362Y55187D01*
X62103Y54957D01*
X62000Y54650D01*
X62103Y54343D01*
X62362Y54113D01*
X62672Y53960D01*
X63085Y53845D01*
X63550Y53807D01*
X64015Y53845D01*
X64428Y53960D01*
X64738Y54113D01*
X64997Y54343D01*
X65100Y54650D01*
G01X62000Y60850D02*
X62052Y61157D01*
X62258Y61425D01*
X62568Y61655D01*
X62930Y61808D01*
X63343Y61885D01*
X63757D01*
X64170Y61808D01*
X64532Y61655D01*
X64842Y61425D01*
X65048Y61157D01*
X65100Y60850D01*
X65048Y60543D01*
X64842Y60275D01*
X64532Y60045D01*
X64170Y59892D01*
X63757Y59815D01*
X63343D01*
X62930Y59892D01*
X62568Y60045D01*
X62258Y60275D01*
X62052Y60543D01*
X62000Y60850D01*
G01X62827Y60543D02*
X62000Y60083D01*
G01Y57750D02*
X65100D01*
X64480Y58210D01*
G01X62000D02*
Y57290D01*
G01X65100Y54650D02*
X64997Y54957D01*
X64738Y55187D01*
X64428Y55340D01*
X64015Y55455D01*
X63550Y55493D01*
X63085Y55455D01*
X62672Y55340D01*
X62362Y55187D01*
X62103Y54957D01*
X62000Y54650D01*
X62103Y54343D01*
X62362Y54113D01*
X62672Y53960D01*
X63085Y53845D01*
X63550Y53807D01*
X64015Y53845D01*
X64428Y53960D01*
X64738Y54113D01*
X64997Y54343D01*
X65100Y54650D01*
G01X55000Y51617D02*
X58100D01*
Y50697D01*
X57945Y50390D01*
X57583Y50160D01*
X57170Y50083D01*
X56757Y50160D01*
X56447Y50352D01*
X56292Y50697D01*
Y51617D01*
G01X57583Y48478D02*
X57893Y48248D01*
X58048Y47980D01*
X58100Y47673D01*
X57997Y47290D01*
X57738Y47022D01*
X57428Y46945D01*
X57118Y46983D01*
X56860Y47137D01*
X56343Y47903D01*
X55982Y48248D01*
X55465Y48478D01*
X55000Y48555D01*
Y46945D01*
G01Y51617D02*
X58100D01*
Y50697D01*
X57945Y50390D01*
X57583Y50160D01*
X57170Y50083D01*
X56757Y50160D01*
X56447Y50352D01*
X56292Y50697D01*
Y51617D01*
G01X57583Y48478D02*
X57893Y48248D01*
X58048Y47980D01*
X58100Y47673D01*
X57997Y47290D01*
X57738Y47022D01*
X57428Y46945D01*
X57118Y46983D01*
X56860Y47137D01*
X56343Y47903D01*
X55982Y48248D01*
X55465Y48478D01*
X55000Y48555D01*
Y46945D01*
G01X42000Y96617D02*
X45100D01*
Y95658D01*
X44945Y95352D01*
X44738Y95160D01*
X44325Y95083D01*
X43912Y95160D01*
X43653Y95390D01*
X43498Y95658D01*
Y96617D01*
G01Y95658D02*
X42000Y95083D01*
G01Y92750D02*
X45100D01*
X44480Y93210D01*
G01X42000D02*
Y92290D01*
G01Y89650D02*
X42052Y89382D01*
X42207Y89075D01*
X42465Y88883D01*
X42827Y88807D01*
X43188Y88883D01*
X43498Y89113D01*
X43653Y89458D01*
Y89842D01*
X43757Y90072D01*
X44015Y90263D01*
X44377Y90340D01*
X44738Y90225D01*
X44997Y89957D01*
X45100Y89650D01*
X44997Y89343D01*
X44738Y89075D01*
X44377Y88960D01*
X44015Y89037D01*
X43757Y89228D01*
X43653Y89458D01*
Y89842D01*
X43498Y90187D01*
X43188Y90417D01*
X42827Y90493D01*
X42465Y90417D01*
X42207Y90225D01*
X42052Y89918D01*
X42000Y89650D01*
G01Y96617D02*
X45100D01*
Y95658D01*
X44945Y95352D01*
X44738Y95160D01*
X44325Y95083D01*
X43912Y95160D01*
X43653Y95390D01*
X43498Y95658D01*
Y96617D01*
G01Y95658D02*
X42000Y95083D01*
G01Y92750D02*
X45100D01*
X44480Y93210D01*
G01X42000D02*
Y92290D01*
G01Y89650D02*
X42052Y89382D01*
X42207Y89075D01*
X42465Y88883D01*
X42827Y88807D01*
X43188Y88883D01*
X43498Y89113D01*
X43653Y89458D01*
Y89842D01*
X43757Y90072D01*
X44015Y90263D01*
X44377Y90340D01*
X44738Y90225D01*
X44997Y89957D01*
X45100Y89650D01*
X44997Y89343D01*
X44738Y89075D01*
X44377Y88960D01*
X44015Y89037D01*
X43757Y89228D01*
X43653Y89458D01*
Y89842D01*
X43498Y90187D01*
X43188Y90417D01*
X42827Y90493D01*
X42465Y90417D01*
X42207Y90225D01*
X42052Y89918D01*
X42000Y89650D01*
G01X68000Y76617D02*
X71100D01*
Y75658D01*
X70945Y75352D01*
X70738Y75160D01*
X70325Y75083D01*
X69912Y75160D01*
X69653Y75390D01*
X69498Y75658D01*
Y76617D01*
G01Y75658D02*
X68000Y75083D01*
G01X70583Y73478D02*
X70893Y73248D01*
X71048Y72980D01*
X71100Y72673D01*
X70997Y72290D01*
X70738Y72022D01*
X70428Y71945D01*
X70118Y71983D01*
X69860Y72137D01*
X69343Y72903D01*
X68982Y73248D01*
X68465Y73478D01*
X68000Y73555D01*
Y71945D01*
G01X70583Y70378D02*
X70893Y70148D01*
X71048Y69880D01*
X71100Y69573D01*
X70997Y69190D01*
X70738Y68922D01*
X70428Y68845D01*
X70118Y68883D01*
X69860Y69037D01*
X69343Y69803D01*
X68982Y70148D01*
X68465Y70378D01*
X68000Y70455D01*
Y68845D01*
G01Y76617D02*
X71100D01*
Y75658D01*
X70945Y75352D01*
X70738Y75160D01*
X70325Y75083D01*
X69912Y75160D01*
X69653Y75390D01*
X69498Y75658D01*
Y76617D01*
G01Y75658D02*
X68000Y75083D01*
G01X70583Y73478D02*
X70893Y73248D01*
X71048Y72980D01*
X71100Y72673D01*
X70997Y72290D01*
X70738Y72022D01*
X70428Y71945D01*
X70118Y71983D01*
X69860Y72137D01*
X69343Y72903D01*
X68982Y73248D01*
X68465Y73478D01*
X68000Y73555D01*
Y71945D01*
G01X70583Y70378D02*
X70893Y70148D01*
X71048Y69880D01*
X71100Y69573D01*
X70997Y69190D01*
X70738Y68922D01*
X70428Y68845D01*
X70118Y68883D01*
X69860Y69037D01*
X69343Y69803D01*
X68982Y70148D01*
X68465Y70378D01*
X68000Y70455D01*
Y68845D01*
G01X62000Y93850D02*
X62052Y94157D01*
X62258Y94425D01*
X62568Y94655D01*
X62930Y94808D01*
X63343Y94885D01*
X63757D01*
X64170Y94808D01*
X64532Y94655D01*
X64842Y94425D01*
X65048Y94157D01*
X65100Y93850D01*
X65048Y93543D01*
X64842Y93275D01*
X64532Y93045D01*
X64170Y92892D01*
X63757Y92815D01*
X63343D01*
X62930Y92892D01*
X62568Y93045D01*
X62258Y93275D01*
X62052Y93543D01*
X62000Y93850D01*
G01X62827Y93543D02*
X62000Y93083D01*
G01X62362Y91402D02*
X62103Y91133D01*
X62000Y90827D01*
X62103Y90520D01*
X62413Y90252D01*
X62878Y90060D01*
X63343Y89983D01*
X63912D01*
X64377Y90060D01*
X64790Y90252D01*
X64997Y90482D01*
X65100Y90750D01*
X64997Y91057D01*
X64790Y91287D01*
X64480Y91440D01*
X64067Y91517D01*
X63705Y91440D01*
X63343Y91248D01*
X63137Y91018D01*
X63085Y90750D01*
X63188Y90443D01*
X63447Y90213D01*
X63912Y89983D01*
G01X62000Y93850D02*
X62052Y94157D01*
X62258Y94425D01*
X62568Y94655D01*
X62930Y94808D01*
X63343Y94885D01*
X63757D01*
X64170Y94808D01*
X64532Y94655D01*
X64842Y94425D01*
X65048Y94157D01*
X65100Y93850D01*
X65048Y93543D01*
X64842Y93275D01*
X64532Y93045D01*
X64170Y92892D01*
X63757Y92815D01*
X63343D01*
X62930Y92892D01*
X62568Y93045D01*
X62258Y93275D01*
X62052Y93543D01*
X62000Y93850D01*
G01X62827Y93543D02*
X62000Y93083D01*
G01X62362Y91402D02*
X62103Y91133D01*
X62000Y90827D01*
X62103Y90520D01*
X62413Y90252D01*
X62878Y90060D01*
X63343Y89983D01*
X63912D01*
X64377Y90060D01*
X64790Y90252D01*
X64997Y90482D01*
X65100Y90750D01*
X64997Y91057D01*
X64790Y91287D01*
X64480Y91440D01*
X64067Y91517D01*
X63705Y91440D01*
X63343Y91248D01*
X63137Y91018D01*
X63085Y90750D01*
X63188Y90443D01*
X63447Y90213D01*
X63912Y89983D01*
G01X70000Y117850D02*
X70052Y118157D01*
X70258Y118425D01*
X70568Y118655D01*
X70930Y118808D01*
X71343Y118885D01*
X71757D01*
X72170Y118808D01*
X72532Y118655D01*
X72842Y118425D01*
X73048Y118157D01*
X73100Y117850D01*
X73048Y117543D01*
X72842Y117275D01*
X72532Y117045D01*
X72170Y116892D01*
X71757Y116815D01*
X71343D01*
X70930Y116892D01*
X70568Y117045D01*
X70258Y117275D01*
X70052Y117543D01*
X70000Y117850D01*
G01X70827Y117543D02*
X70000Y117083D01*
G01Y114750D02*
X70052Y114482D01*
X70207Y114175D01*
X70465Y113983D01*
X70827Y113907D01*
X71188Y113983D01*
X71498Y114213D01*
X71653Y114558D01*
Y114942D01*
X71757Y115172D01*
X72015Y115363D01*
X72377Y115440D01*
X72738Y115325D01*
X72997Y115057D01*
X73100Y114750D01*
X72997Y114443D01*
X72738Y114175D01*
X72377Y114060D01*
X72015Y114137D01*
X71757Y114328D01*
X71653Y114558D01*
Y114942D01*
X71498Y115287D01*
X71188Y115517D01*
X70827Y115593D01*
X70465Y115517D01*
X70207Y115325D01*
X70052Y115018D01*
X70000Y114750D01*
G01Y117850D02*
X70052Y118157D01*
X70258Y118425D01*
X70568Y118655D01*
X70930Y118808D01*
X71343Y118885D01*
X71757D01*
X72170Y118808D01*
X72532Y118655D01*
X72842Y118425D01*
X73048Y118157D01*
X73100Y117850D01*
X73048Y117543D01*
X72842Y117275D01*
X72532Y117045D01*
X72170Y116892D01*
X71757Y116815D01*
X71343D01*
X70930Y116892D01*
X70568Y117045D01*
X70258Y117275D01*
X70052Y117543D01*
X70000Y117850D01*
G01X70827Y117543D02*
X70000Y117083D01*
G01Y114750D02*
X70052Y114482D01*
X70207Y114175D01*
X70465Y113983D01*
X70827Y113907D01*
X71188Y113983D01*
X71498Y114213D01*
X71653Y114558D01*
Y114942D01*
X71757Y115172D01*
X72015Y115363D01*
X72377Y115440D01*
X72738Y115325D01*
X72997Y115057D01*
X73100Y114750D01*
X72997Y114443D01*
X72738Y114175D01*
X72377Y114060D01*
X72015Y114137D01*
X71757Y114328D01*
X71653Y114558D01*
Y114942D01*
X71498Y115287D01*
X71188Y115517D01*
X70827Y115593D01*
X70465Y115517D01*
X70207Y115325D01*
X70052Y115018D01*
X70000Y114750D01*
G01X45000Y144617D02*
X48100D01*
Y143658D01*
X47945Y143352D01*
X47738Y143160D01*
X47325Y143083D01*
X46912Y143160D01*
X46653Y143390D01*
X46498Y143658D01*
Y144617D01*
G01Y143658D02*
X45000Y143083D01*
G01X45620Y141593D02*
X45258Y141363D01*
X45052Y141057D01*
X45000Y140712D01*
X45052Y140405D01*
X45310Y140098D01*
X45620Y139907D01*
X45930Y139868D01*
X46292Y139945D01*
X46550Y140213D01*
X46653Y140482D01*
Y140827D01*
G01Y140482D02*
X46808Y140252D01*
X47067Y140060D01*
X47377Y139983D01*
X47687Y140060D01*
X47945Y140252D01*
X48100Y140597D01*
X48048Y140942D01*
X47842Y141287D01*
G01X45000Y144617D02*
X48100D01*
Y143658D01*
X47945Y143352D01*
X47738Y143160D01*
X47325Y143083D01*
X46912Y143160D01*
X46653Y143390D01*
X46498Y143658D01*
Y144617D01*
G01Y143658D02*
X45000Y143083D01*
G01X45620Y141593D02*
X45258Y141363D01*
X45052Y141057D01*
X45000Y140712D01*
X45052Y140405D01*
X45310Y140098D01*
X45620Y139907D01*
X45930Y139868D01*
X46292Y139945D01*
X46550Y140213D01*
X46653Y140482D01*
Y140827D01*
G01Y140482D02*
X46808Y140252D01*
X47067Y140060D01*
X47377Y139983D01*
X47687Y140060D01*
X47945Y140252D01*
X48100Y140597D01*
X48048Y140942D01*
X47842Y141287D01*
G01X49000Y124850D02*
X49052Y125157D01*
X49258Y125425D01*
X49568Y125655D01*
X49930Y125808D01*
X50343Y125885D01*
X50757D01*
X51170Y125808D01*
X51532Y125655D01*
X51842Y125425D01*
X52048Y125157D01*
X52100Y124850D01*
X52048Y124543D01*
X51842Y124275D01*
X51532Y124045D01*
X51170Y123892D01*
X50757Y123815D01*
X50343D01*
X49930Y123892D01*
X49568Y124045D01*
X49258Y124275D01*
X49052Y124543D01*
X49000Y124850D01*
G01X49827Y124543D02*
X49000Y124083D01*
G01Y121290D02*
X52100D01*
X49878Y122708D01*
Y120792D01*
G01X49000Y124850D02*
X49052Y125157D01*
X49258Y125425D01*
X49568Y125655D01*
X49930Y125808D01*
X50343Y125885D01*
X50757D01*
X51170Y125808D01*
X51532Y125655D01*
X51842Y125425D01*
X52048Y125157D01*
X52100Y124850D01*
X52048Y124543D01*
X51842Y124275D01*
X51532Y124045D01*
X51170Y123892D01*
X50757Y123815D01*
X50343D01*
X49930Y123892D01*
X49568Y124045D01*
X49258Y124275D01*
X49052Y124543D01*
X49000Y124850D01*
G01X49827Y124543D02*
X49000Y124083D01*
G01Y121290D02*
X52100D01*
X49878Y122708D01*
Y120792D01*
G01X56307Y138000D02*
Y141100D01*
X57073D01*
X57380Y140945D01*
X57610Y140738D01*
X57802Y140428D01*
X57955Y140067D01*
X57993Y139550D01*
X57955Y139033D01*
X57802Y138672D01*
X57610Y138362D01*
X57380Y138155D01*
X57073Y138000D01*
X56307D01*
G01X60250D02*
Y141100D01*
X59790Y140480D01*
G01Y138000D02*
X60710D01*
G01X56307D02*
Y141100D01*
X57073D01*
X57380Y140945D01*
X57610Y140738D01*
X57802Y140428D01*
X57955Y140067D01*
X57993Y139550D01*
X57955Y139033D01*
X57802Y138672D01*
X57610Y138362D01*
X57380Y138155D01*
X57073Y138000D01*
X56307D01*
G01X60250D02*
Y141100D01*
X59790Y140480D01*
G01Y138000D02*
X60710D01*
G01X69000Y131693D02*
X72100D01*
Y130927D01*
X71945Y130620D01*
X71738Y130390D01*
X71428Y130198D01*
X71067Y130045D01*
X70550Y130007D01*
X70033Y130045D01*
X69672Y130198D01*
X69362Y130390D01*
X69155Y130620D01*
X69000Y130927D01*
Y131693D01*
G01X71583Y128478D02*
X71893Y128248D01*
X72048Y127980D01*
X72100Y127673D01*
X71997Y127290D01*
X71738Y127022D01*
X71428Y126945D01*
X71118Y126983D01*
X70860Y127137D01*
X70343Y127903D01*
X69982Y128248D01*
X69465Y128478D01*
X69000Y128555D01*
Y126945D01*
G01Y131693D02*
X72100D01*
Y130927D01*
X71945Y130620D01*
X71738Y130390D01*
X71428Y130198D01*
X71067Y130045D01*
X70550Y130007D01*
X70033Y130045D01*
X69672Y130198D01*
X69362Y130390D01*
X69155Y130620D01*
X69000Y130927D01*
Y131693D01*
G01X71583Y128478D02*
X71893Y128248D01*
X72048Y127980D01*
X72100Y127673D01*
X71997Y127290D01*
X71738Y127022D01*
X71428Y126945D01*
X71118Y126983D01*
X70860Y127137D01*
X70343Y127903D01*
X69982Y128248D01*
X69465Y128478D01*
X69000Y128555D01*
Y126945D01*
G01X91383Y26000D02*
Y29100D01*
X92342D01*
X92648Y28945D01*
X92840Y28738D01*
X92917Y28325D01*
X92840Y27912D01*
X92610Y27653D01*
X92342Y27498D01*
X91383D01*
G01X92342D02*
X92917Y26000D01*
G01X95250D02*
Y29100D01*
X94790Y28480D01*
G01Y26000D02*
X95710D01*
G01X98350Y29100D02*
X98043Y28997D01*
X97813Y28738D01*
X97660Y28428D01*
X97545Y28015D01*
X97507Y27550D01*
X97545Y27085D01*
X97660Y26672D01*
X97813Y26362D01*
X98043Y26103D01*
X98350Y26000D01*
X98657Y26103D01*
X98887Y26362D01*
X99040Y26672D01*
X99155Y27085D01*
X99193Y27550D01*
X99155Y28015D01*
X99040Y28428D01*
X98887Y28738D01*
X98657Y28997D01*
X98350Y29100D01*
G01X91383Y26000D02*
Y29100D01*
X92342D01*
X92648Y28945D01*
X92840Y28738D01*
X92917Y28325D01*
X92840Y27912D01*
X92610Y27653D01*
X92342Y27498D01*
X91383D01*
G01X92342D02*
X92917Y26000D01*
G01X95250D02*
Y29100D01*
X94790Y28480D01*
G01Y26000D02*
X95710D01*
G01X98350Y29100D02*
X98043Y28997D01*
X97813Y28738D01*
X97660Y28428D01*
X97545Y28015D01*
X97507Y27550D01*
X97545Y27085D01*
X97660Y26672D01*
X97813Y26362D01*
X98043Y26103D01*
X98350Y26000D01*
X98657Y26103D01*
X98887Y26362D01*
X99040Y26672D01*
X99155Y27085D01*
X99193Y27550D01*
X99155Y28015D01*
X99040Y28428D01*
X98887Y28738D01*
X98657Y28997D01*
X98350Y29100D01*
G01X79383Y11000D02*
Y14100D01*
X80342D01*
X80648Y13945D01*
X80840Y13738D01*
X80917Y13325D01*
X80840Y12912D01*
X80610Y12653D01*
X80342Y12498D01*
X79383D01*
G01X80342D02*
X80917Y11000D01*
G01X83250D02*
X83518Y11052D01*
X83825Y11207D01*
X84017Y11465D01*
X84093Y11827D01*
X84017Y12188D01*
X83787Y12498D01*
X83442Y12653D01*
X83058D01*
X82828Y12757D01*
X82637Y13015D01*
X82560Y13377D01*
X82675Y13738D01*
X82943Y13997D01*
X83250Y14100D01*
X83557Y13997D01*
X83825Y13738D01*
X83940Y13377D01*
X83863Y13015D01*
X83672Y12757D01*
X83442Y12653D01*
X83058D01*
X82713Y12498D01*
X82483Y12188D01*
X82407Y11827D01*
X82483Y11465D01*
X82675Y11207D01*
X82982Y11052D01*
X83250Y11000D01*
G01X79383D02*
Y14100D01*
X80342D01*
X80648Y13945D01*
X80840Y13738D01*
X80917Y13325D01*
X80840Y12912D01*
X80610Y12653D01*
X80342Y12498D01*
X79383D01*
G01X80342D02*
X80917Y11000D01*
G01X83250D02*
X83518Y11052D01*
X83825Y11207D01*
X84017Y11465D01*
X84093Y11827D01*
X84017Y12188D01*
X83787Y12498D01*
X83442Y12653D01*
X83058D01*
X82828Y12757D01*
X82637Y13015D01*
X82560Y13377D01*
X82675Y13738D01*
X82943Y13997D01*
X83250Y14100D01*
X83557Y13997D01*
X83825Y13738D01*
X83940Y13377D01*
X83863Y13015D01*
X83672Y12757D01*
X83442Y12653D01*
X83058D01*
X82713Y12498D01*
X82483Y12188D01*
X82407Y11827D01*
X82483Y11465D01*
X82675Y11207D01*
X82982Y11052D01*
X83250Y11000D01*
G01X80000Y95617D02*
X83100D01*
Y94658D01*
X82945Y94352D01*
X82738Y94160D01*
X82325Y94083D01*
X81912Y94160D01*
X81653Y94390D01*
X81498Y94658D01*
Y95617D01*
G01Y94658D02*
X80000Y94083D01*
G01Y91750D02*
X83100D01*
X82480Y92210D01*
G01X80000D02*
Y91290D01*
G01Y88650D02*
X83100D01*
X82480Y89110D01*
G01X80000D02*
Y88190D01*
G01Y95617D02*
X83100D01*
Y94658D01*
X82945Y94352D01*
X82738Y94160D01*
X82325Y94083D01*
X81912Y94160D01*
X81653Y94390D01*
X81498Y94658D01*
Y95617D01*
G01Y94658D02*
X80000Y94083D01*
G01Y91750D02*
X83100D01*
X82480Y92210D01*
G01X80000D02*
Y91290D01*
G01Y88650D02*
X83100D01*
X82480Y89110D01*
G01X80000D02*
Y88190D01*
G01X83383Y83000D02*
Y86100D01*
X84342D01*
X84648Y85945D01*
X84840Y85738D01*
X84917Y85325D01*
X84840Y84912D01*
X84610Y84653D01*
X84342Y84498D01*
X83383D01*
G01X84342D02*
X84917Y83000D01*
G01X87710D02*
Y86100D01*
X86292Y83878D01*
X88208D01*
G01X83383Y83000D02*
Y86100D01*
X84342D01*
X84648Y85945D01*
X84840Y85738D01*
X84917Y85325D01*
X84840Y84912D01*
X84610Y84653D01*
X84342Y84498D01*
X83383D01*
G01X84342D02*
X84917Y83000D01*
G01X87710D02*
Y86100D01*
X86292Y83878D01*
X88208D01*
G01X97150Y82000D02*
X96843Y82052D01*
X96575Y82258D01*
X96345Y82568D01*
X96192Y82930D01*
X96115Y83343D01*
Y83757D01*
X96192Y84170D01*
X96345Y84532D01*
X96575Y84842D01*
X96843Y85048D01*
X97150Y85100D01*
X97457Y85048D01*
X97725Y84842D01*
X97955Y84532D01*
X98108Y84170D01*
X98185Y83757D01*
Y83343D01*
X98108Y82930D01*
X97955Y82568D01*
X97725Y82258D01*
X97457Y82052D01*
X97150Y82000D01*
G01X97457Y82827D02*
X97917Y82000D01*
G01X99407Y82620D02*
X99637Y82258D01*
X99943Y82052D01*
X100288Y82000D01*
X100595Y82052D01*
X100902Y82310D01*
X101093Y82620D01*
X101132Y82930D01*
X101055Y83292D01*
X100787Y83550D01*
X100518Y83653D01*
X100173D01*
G01X100518D02*
X100748Y83808D01*
X100940Y84067D01*
X101017Y84377D01*
X100940Y84687D01*
X100748Y84945D01*
X100403Y85100D01*
X100058Y85048D01*
X99713Y84842D01*
G01X97150Y82000D02*
X96843Y82052D01*
X96575Y82258D01*
X96345Y82568D01*
X96192Y82930D01*
X96115Y83343D01*
Y83757D01*
X96192Y84170D01*
X96345Y84532D01*
X96575Y84842D01*
X96843Y85048D01*
X97150Y85100D01*
X97457Y85048D01*
X97725Y84842D01*
X97955Y84532D01*
X98108Y84170D01*
X98185Y83757D01*
Y83343D01*
X98108Y82930D01*
X97955Y82568D01*
X97725Y82258D01*
X97457Y82052D01*
X97150Y82000D01*
G01X97457Y82827D02*
X97917Y82000D01*
G01X99407Y82620D02*
X99637Y82258D01*
X99943Y82052D01*
X100288Y82000D01*
X100595Y82052D01*
X100902Y82310D01*
X101093Y82620D01*
X101132Y82930D01*
X101055Y83292D01*
X100787Y83550D01*
X100518Y83653D01*
X100173D01*
G01X100518D02*
X100748Y83808D01*
X100940Y84067D01*
X101017Y84377D01*
X100940Y84687D01*
X100748Y84945D01*
X100403Y85100D01*
X100058Y85048D01*
X99713Y84842D01*
G01X80150Y101000D02*
X79843Y101052D01*
X79575Y101258D01*
X79345Y101568D01*
X79192Y101930D01*
X79115Y102343D01*
Y102757D01*
X79192Y103170D01*
X79345Y103532D01*
X79575Y103842D01*
X79843Y104048D01*
X80150Y104100D01*
X80457Y104048D01*
X80725Y103842D01*
X80955Y103532D01*
X81108Y103170D01*
X81185Y102757D01*
Y102343D01*
X81108Y101930D01*
X80955Y101568D01*
X80725Y101258D01*
X80457Y101052D01*
X80150Y101000D01*
G01X80457Y101827D02*
X80917Y101000D01*
G01X82407Y101465D02*
X82637Y101207D01*
X82905Y101052D01*
X83250Y101000D01*
X83595Y101103D01*
X83863Y101310D01*
X84055Y101672D01*
X84093Y102085D01*
X84017Y102498D01*
X83825Y102757D01*
X83557Y102963D01*
X83288Y103015D01*
X83020Y102963D01*
X82675Y102757D01*
X82790Y104100D01*
X83825D01*
G01X80150Y101000D02*
X79843Y101052D01*
X79575Y101258D01*
X79345Y101568D01*
X79192Y101930D01*
X79115Y102343D01*
Y102757D01*
X79192Y103170D01*
X79345Y103532D01*
X79575Y103842D01*
X79843Y104048D01*
X80150Y104100D01*
X80457Y104048D01*
X80725Y103842D01*
X80955Y103532D01*
X81108Y103170D01*
X81185Y102757D01*
Y102343D01*
X81108Y101930D01*
X80955Y101568D01*
X80725Y101258D01*
X80457Y101052D01*
X80150Y101000D01*
G01X80457Y101827D02*
X80917Y101000D01*
G01X82407Y101465D02*
X82637Y101207D01*
X82905Y101052D01*
X83250Y101000D01*
X83595Y101103D01*
X83863Y101310D01*
X84055Y101672D01*
X84093Y102085D01*
X84017Y102498D01*
X83825Y102757D01*
X83557Y102963D01*
X83288Y103015D01*
X83020Y102963D01*
X82675Y102757D01*
X82790Y104100D01*
X83825D01*
G01X86000Y133617D02*
X89100D01*
Y132658D01*
X88945Y132352D01*
X88738Y132160D01*
X88325Y132083D01*
X87912Y132160D01*
X87653Y132390D01*
X87498Y132658D01*
Y133617D01*
G01Y132658D02*
X86000Y132083D01*
G01X87292Y130478D02*
X87653Y130210D01*
X87860Y129980D01*
X87963Y129673D01*
X87860Y129405D01*
X87653Y129213D01*
X87343Y129060D01*
X86982Y129022D01*
X86672Y129060D01*
X86362Y129213D01*
X86103Y129443D01*
X86000Y129712D01*
X86103Y130018D01*
X86413Y130287D01*
X86878Y130440D01*
X87395Y130478D01*
X88067Y130402D01*
X88428Y130287D01*
X88790Y130095D01*
X89048Y129827D01*
X89100Y129558D01*
X88997Y129290D01*
X88738Y129098D01*
G01X86000Y133617D02*
X89100D01*
Y132658D01*
X88945Y132352D01*
X88738Y132160D01*
X88325Y132083D01*
X87912Y132160D01*
X87653Y132390D01*
X87498Y132658D01*
Y133617D01*
G01Y132658D02*
X86000Y132083D01*
G01X87292Y130478D02*
X87653Y130210D01*
X87860Y129980D01*
X87963Y129673D01*
X87860Y129405D01*
X87653Y129213D01*
X87343Y129060D01*
X86982Y129022D01*
X86672Y129060D01*
X86362Y129213D01*
X86103Y129443D01*
X86000Y129712D01*
X86103Y130018D01*
X86413Y130287D01*
X86878Y130440D01*
X87395Y130478D01*
X88067Y130402D01*
X88428Y130287D01*
X88790Y130095D01*
X89048Y129827D01*
X89100Y129558D01*
X88997Y129290D01*
X88738Y129098D01*
G01X87383Y136000D02*
Y139100D01*
X88342D01*
X88648Y138945D01*
X88840Y138738D01*
X88917Y138325D01*
X88840Y137912D01*
X88610Y137653D01*
X88342Y137498D01*
X87383D01*
G01X88342D02*
X88917Y136000D01*
G01X90598Y136362D02*
X90867Y136103D01*
X91173Y136000D01*
X91480Y136103D01*
X91748Y136413D01*
X91940Y136878D01*
X92017Y137343D01*
Y137912D01*
X91940Y138377D01*
X91748Y138790D01*
X91518Y138997D01*
X91250Y139100D01*
X90943Y138997D01*
X90713Y138790D01*
X90560Y138480D01*
X90483Y138067D01*
X90560Y137705D01*
X90752Y137343D01*
X90982Y137137D01*
X91250Y137085D01*
X91557Y137188D01*
X91787Y137447D01*
X92017Y137912D01*
G01X87383Y136000D02*
Y139100D01*
X88342D01*
X88648Y138945D01*
X88840Y138738D01*
X88917Y138325D01*
X88840Y137912D01*
X88610Y137653D01*
X88342Y137498D01*
X87383D01*
G01X88342D02*
X88917Y136000D01*
G01X90598Y136362D02*
X90867Y136103D01*
X91173Y136000D01*
X91480Y136103D01*
X91748Y136413D01*
X91940Y136878D01*
X92017Y137343D01*
Y137912D01*
X91940Y138377D01*
X91748Y138790D01*
X91518Y138997D01*
X91250Y139100D01*
X90943Y138997D01*
X90713Y138790D01*
X90560Y138480D01*
X90483Y138067D01*
X90560Y137705D01*
X90752Y137343D01*
X90982Y137137D01*
X91250Y137085D01*
X91557Y137188D01*
X91787Y137447D01*
X92017Y137912D01*
G01X124133Y6920D02*
X124325Y6610D01*
X124555Y6403D01*
X124823Y6300D01*
X125130Y6403D01*
X125360Y6610D01*
X125590Y6920D01*
X125667Y7333D01*
Y9400D01*
G01X128000Y6300D02*
Y9400D01*
X127540Y8780D01*
G01Y6300D02*
X128460D01*
G01X124133Y6920D02*
X124325Y6610D01*
X124555Y6403D01*
X124823Y6300D01*
X125130Y6403D01*
X125360Y6610D01*
X125590Y6920D01*
X125667Y7333D01*
Y9400D01*
G01X128000Y6300D02*
Y9400D01*
X127540Y8780D01*
G01Y6300D02*
X128460D01*
G01X124133Y6920D02*
X124325Y6610D01*
X124555Y6403D01*
X124823Y6300D01*
X125130Y6403D01*
X125360Y6610D01*
X125590Y6920D01*
X125667Y7333D01*
Y9400D01*
G01X128000Y6300D02*
Y9400D01*
X127540Y8780D01*
G01Y6300D02*
X128460D01*
G01X123000Y26617D02*
X126100D01*
Y25658D01*
X125945Y25352D01*
X125738Y25160D01*
X125325Y25083D01*
X124912Y25160D01*
X124653Y25390D01*
X124498Y25658D01*
Y26617D01*
G01Y25658D02*
X123000Y25083D01*
G01Y22827D02*
X123672Y22750D01*
X124240Y22635D01*
X124757Y22482D01*
X125325Y22290D01*
X126100Y21983D01*
Y23517D01*
G01X123000Y26617D02*
X126100D01*
Y25658D01*
X125945Y25352D01*
X125738Y25160D01*
X125325Y25083D01*
X124912Y25160D01*
X124653Y25390D01*
X124498Y25658D01*
Y26617D01*
G01Y25658D02*
X123000Y25083D01*
G01Y22827D02*
X123672Y22750D01*
X124240Y22635D01*
X124757Y22482D01*
X125325Y22290D01*
X126100Y21983D01*
Y23517D01*
G01X110000Y55617D02*
X113100D01*
Y54658D01*
X112945Y54352D01*
X112738Y54160D01*
X112325Y54083D01*
X111912Y54160D01*
X111653Y54390D01*
X111498Y54658D01*
Y55617D01*
G01Y54658D02*
X110000Y54083D01*
G01X110465Y52593D02*
X110207Y52363D01*
X110052Y52095D01*
X110000Y51750D01*
X110103Y51405D01*
X110310Y51137D01*
X110672Y50945D01*
X111085Y50907D01*
X111498Y50983D01*
X111757Y51175D01*
X111963Y51443D01*
X112015Y51712D01*
X111963Y51980D01*
X111757Y52325D01*
X113100Y52210D01*
Y51175D01*
G01X110000Y55617D02*
X113100D01*
Y54658D01*
X112945Y54352D01*
X112738Y54160D01*
X112325Y54083D01*
X111912Y54160D01*
X111653Y54390D01*
X111498Y54658D01*
Y55617D01*
G01Y54658D02*
X110000Y54083D01*
G01X110465Y52593D02*
X110207Y52363D01*
X110052Y52095D01*
X110000Y51750D01*
X110103Y51405D01*
X110310Y51137D01*
X110672Y50945D01*
X111085Y50907D01*
X111498Y50983D01*
X111757Y51175D01*
X111963Y51443D01*
X112015Y51712D01*
X111963Y51980D01*
X111757Y52325D01*
X113100Y52210D01*
Y51175D01*
G01X127383Y41000D02*
Y44100D01*
X128342D01*
X128648Y43945D01*
X128840Y43738D01*
X128917Y43325D01*
X128840Y42912D01*
X128610Y42653D01*
X128342Y42498D01*
X127383D01*
G01X128342D02*
X128917Y41000D01*
G01X131250D02*
Y44100D01*
X130790Y43480D01*
G01Y41000D02*
X131710D01*
G01X133622Y43583D02*
X133852Y43893D01*
X134120Y44048D01*
X134427Y44100D01*
X134810Y43997D01*
X135078Y43738D01*
X135155Y43428D01*
X135117Y43118D01*
X134963Y42860D01*
X134197Y42343D01*
X133852Y41982D01*
X133622Y41465D01*
X133545Y41000D01*
X135155D01*
G01X127383D02*
Y44100D01*
X128342D01*
X128648Y43945D01*
X128840Y43738D01*
X128917Y43325D01*
X128840Y42912D01*
X128610Y42653D01*
X128342Y42498D01*
X127383D01*
G01X128342D02*
X128917Y41000D01*
G01X131250D02*
Y44100D01*
X130790Y43480D01*
G01Y41000D02*
X131710D01*
G01X133622Y43583D02*
X133852Y43893D01*
X134120Y44048D01*
X134427Y44100D01*
X134810Y43997D01*
X135078Y43738D01*
X135155Y43428D01*
X135117Y43118D01*
X134963Y42860D01*
X134197Y42343D01*
X133852Y41982D01*
X133622Y41465D01*
X133545Y41000D01*
X135155D01*
G01X111000Y44617D02*
X114100D01*
Y43697D01*
X113945Y43390D01*
X113583Y43160D01*
X113170Y43083D01*
X112757Y43160D01*
X112447Y43352D01*
X112292Y43697D01*
Y44617D01*
G01X111000Y40750D02*
X114100D01*
X113480Y41210D01*
G01X111000D02*
Y40290D01*
G01Y44617D02*
X114100D01*
Y43697D01*
X113945Y43390D01*
X113583Y43160D01*
X113170Y43083D01*
X112757Y43160D01*
X112447Y43352D01*
X112292Y43697D01*
Y44617D01*
G01X111000Y40750D02*
X114100D01*
X113480Y41210D01*
G01X111000D02*
Y40290D01*
G01X129383Y62000D02*
Y65100D01*
X130342D01*
X130648Y64945D01*
X130840Y64738D01*
X130917Y64325D01*
X130840Y63912D01*
X130610Y63653D01*
X130342Y63498D01*
X129383D01*
G01X130342D02*
X130917Y62000D01*
G01X132522Y64583D02*
X132752Y64893D01*
X133020Y65048D01*
X133327Y65100D01*
X133710Y64997D01*
X133978Y64738D01*
X134055Y64428D01*
X134017Y64118D01*
X133863Y63860D01*
X133097Y63343D01*
X132752Y62982D01*
X132522Y62465D01*
X132445Y62000D01*
X134055D01*
G01X129383D02*
Y65100D01*
X130342D01*
X130648Y64945D01*
X130840Y64738D01*
X130917Y64325D01*
X130840Y63912D01*
X130610Y63653D01*
X130342Y63498D01*
X129383D01*
G01X130342D02*
X130917Y62000D01*
G01X132522Y64583D02*
X132752Y64893D01*
X133020Y65048D01*
X133327Y65100D01*
X133710Y64997D01*
X133978Y64738D01*
X134055Y64428D01*
X134017Y64118D01*
X133863Y63860D01*
X133097Y63343D01*
X132752Y62982D01*
X132522Y62465D01*
X132445Y62000D01*
X134055D01*
G01X109150Y81000D02*
X108843Y81052D01*
X108575Y81258D01*
X108345Y81568D01*
X108192Y81930D01*
X108115Y82343D01*
Y82757D01*
X108192Y83170D01*
X108345Y83532D01*
X108575Y83842D01*
X108843Y84048D01*
X109150Y84100D01*
X109457Y84048D01*
X109725Y83842D01*
X109955Y83532D01*
X110108Y83170D01*
X110185Y82757D01*
Y82343D01*
X110108Y81930D01*
X109955Y81568D01*
X109725Y81258D01*
X109457Y81052D01*
X109150Y81000D01*
G01X109457Y81827D02*
X109917Y81000D01*
G01X111522Y83583D02*
X111752Y83893D01*
X112020Y84048D01*
X112327Y84100D01*
X112710Y83997D01*
X112978Y83738D01*
X113055Y83428D01*
X113017Y83118D01*
X112863Y82860D01*
X112097Y82343D01*
X111752Y81982D01*
X111522Y81465D01*
X111445Y81000D01*
X113055D01*
G01X109150D02*
X108843Y81052D01*
X108575Y81258D01*
X108345Y81568D01*
X108192Y81930D01*
X108115Y82343D01*
Y82757D01*
X108192Y83170D01*
X108345Y83532D01*
X108575Y83842D01*
X108843Y84048D01*
X109150Y84100D01*
X109457Y84048D01*
X109725Y83842D01*
X109955Y83532D01*
X110108Y83170D01*
X110185Y82757D01*
Y82343D01*
X110108Y81930D01*
X109955Y81568D01*
X109725Y81258D01*
X109457Y81052D01*
X109150Y81000D01*
G01X109457Y81827D02*
X109917Y81000D01*
G01X111522Y83583D02*
X111752Y83893D01*
X112020Y84048D01*
X112327Y84100D01*
X112710Y83997D01*
X112978Y83738D01*
X113055Y83428D01*
X113017Y83118D01*
X112863Y82860D01*
X112097Y82343D01*
X111752Y81982D01*
X111522Y81465D01*
X111445Y81000D01*
X113055D01*
G01X103150Y105000D02*
X102843Y105052D01*
X102575Y105258D01*
X102345Y105568D01*
X102192Y105930D01*
X102115Y106343D01*
Y106757D01*
X102192Y107170D01*
X102345Y107532D01*
X102575Y107842D01*
X102843Y108048D01*
X103150Y108100D01*
X103457Y108048D01*
X103725Y107842D01*
X103955Y107532D01*
X104108Y107170D01*
X104185Y106757D01*
Y106343D01*
X104108Y105930D01*
X103955Y105568D01*
X103725Y105258D01*
X103457Y105052D01*
X103150Y105000D01*
G01X103457Y105827D02*
X103917Y105000D01*
G01X106173D02*
X106250Y105672D01*
X106365Y106240D01*
X106518Y106757D01*
X106710Y107325D01*
X107017Y108100D01*
X105483D01*
G01X103150Y105000D02*
X102843Y105052D01*
X102575Y105258D01*
X102345Y105568D01*
X102192Y105930D01*
X102115Y106343D01*
Y106757D01*
X102192Y107170D01*
X102345Y107532D01*
X102575Y107842D01*
X102843Y108048D01*
X103150Y108100D01*
X103457Y108048D01*
X103725Y107842D01*
X103955Y107532D01*
X104108Y107170D01*
X104185Y106757D01*
Y106343D01*
X104108Y105930D01*
X103955Y105568D01*
X103725Y105258D01*
X103457Y105052D01*
X103150Y105000D01*
G01X103457Y105827D02*
X103917Y105000D01*
G01X106173D02*
X106250Y105672D01*
X106365Y106240D01*
X106518Y106757D01*
X106710Y107325D01*
X107017Y108100D01*
X105483D01*
G01X114000Y104850D02*
X114052Y105157D01*
X114258Y105425D01*
X114568Y105655D01*
X114930Y105808D01*
X115343Y105885D01*
X115757D01*
X116170Y105808D01*
X116532Y105655D01*
X116842Y105425D01*
X117048Y105157D01*
X117100Y104850D01*
X117048Y104543D01*
X116842Y104275D01*
X116532Y104045D01*
X116170Y103892D01*
X115757Y103815D01*
X115343D01*
X114930Y103892D01*
X114568Y104045D01*
X114258Y104275D01*
X114052Y104543D01*
X114000Y104850D01*
G01X114827Y104543D02*
X114000Y104083D01*
G01Y101750D02*
X117100D01*
X116480Y102210D01*
G01X114000D02*
Y101290D01*
G01X105150Y134000D02*
X104843Y134052D01*
X104575Y134258D01*
X104345Y134568D01*
X104192Y134930D01*
X104115Y135343D01*
Y135757D01*
X104192Y136170D01*
X104345Y136532D01*
X104575Y136842D01*
X104843Y137048D01*
X105150Y137100D01*
X105457Y137048D01*
X105725Y136842D01*
X105955Y136532D01*
X106108Y136170D01*
X106185Y135757D01*
Y135343D01*
X106108Y134930D01*
X105955Y134568D01*
X105725Y134258D01*
X105457Y134052D01*
X105150Y134000D01*
G01X105457Y134827D02*
X105917Y134000D01*
G01X107522Y135292D02*
X107790Y135653D01*
X108020Y135860D01*
X108327Y135963D01*
X108595Y135860D01*
X108787Y135653D01*
X108940Y135343D01*
X108978Y134982D01*
X108940Y134672D01*
X108787Y134362D01*
X108557Y134103D01*
X108288Y134000D01*
X107982Y134103D01*
X107713Y134413D01*
X107560Y134878D01*
X107522Y135395D01*
X107598Y136067D01*
X107713Y136428D01*
X107905Y136790D01*
X108173Y137048D01*
X108442Y137100D01*
X108710Y136997D01*
X108902Y136738D01*
G01X105150Y134000D02*
X104843Y134052D01*
X104575Y134258D01*
X104345Y134568D01*
X104192Y134930D01*
X104115Y135343D01*
Y135757D01*
X104192Y136170D01*
X104345Y136532D01*
X104575Y136842D01*
X104843Y137048D01*
X105150Y137100D01*
X105457Y137048D01*
X105725Y136842D01*
X105955Y136532D01*
X106108Y136170D01*
X106185Y135757D01*
Y135343D01*
X106108Y134930D01*
X105955Y134568D01*
X105725Y134258D01*
X105457Y134052D01*
X105150Y134000D01*
G01X105457Y134827D02*
X105917Y134000D01*
G01X107522Y135292D02*
X107790Y135653D01*
X108020Y135860D01*
X108327Y135963D01*
X108595Y135860D01*
X108787Y135653D01*
X108940Y135343D01*
X108978Y134982D01*
X108940Y134672D01*
X108787Y134362D01*
X108557Y134103D01*
X108288Y134000D01*
X107982Y134103D01*
X107713Y134413D01*
X107560Y134878D01*
X107522Y135395D01*
X107598Y136067D01*
X107713Y136428D01*
X107905Y136790D01*
X108173Y137048D01*
X108442Y137100D01*
X108710Y136997D01*
X108902Y136738D01*
G01X145607Y37000D02*
Y40100D01*
X146373D01*
X146680Y39945D01*
X146910Y39738D01*
X147102Y39428D01*
X147255Y39067D01*
X147293Y38550D01*
X147255Y38033D01*
X147102Y37672D01*
X146910Y37362D01*
X146680Y37155D01*
X146373Y37000D01*
X145607D01*
G01X148707Y37620D02*
X148937Y37258D01*
X149243Y37052D01*
X149588Y37000D01*
X149895Y37052D01*
X150202Y37310D01*
X150393Y37620D01*
X150432Y37930D01*
X150355Y38292D01*
X150087Y38550D01*
X149818Y38653D01*
X149473D01*
G01X149818D02*
X150048Y38808D01*
X150240Y39067D01*
X150317Y39377D01*
X150240Y39687D01*
X150048Y39945D01*
X149703Y40100D01*
X149358Y40048D01*
X149013Y39842D01*
G01X144383Y62000D02*
Y65100D01*
X145342D01*
X145648Y64945D01*
X145840Y64738D01*
X145917Y64325D01*
X145840Y63912D01*
X145610Y63653D01*
X145342Y63498D01*
X144383D01*
G01X145342D02*
X145917Y62000D01*
G01X148250D02*
Y65100D01*
X147790Y64480D01*
G01Y62000D02*
X148710D01*
G01X144383D02*
Y65100D01*
X145342D01*
X145648Y64945D01*
X145840Y64738D01*
X145917Y64325D01*
X145840Y63912D01*
X145610Y63653D01*
X145342Y63498D01*
X144383D01*
G01X145342D02*
X145917Y62000D01*
G01X148250D02*
Y65100D01*
X147790Y64480D01*
G01Y62000D02*
X148710D01*
G54D11*
G01X5550Y152500D02*
Y137500D01*
G01D02*
X27050D01*
G01Y152500D02*
X5550D01*
G01X27050Y137500D02*
Y152500D01*
G01X130950Y20500D02*
Y5500D01*
G01D02*
X152450D01*
G01D02*
Y20500D01*
G01D02*
X130950D01*
G54D12*
G01X36472Y64354D02*
G03Y63961I0J-196D01*
G01D02*
G03Y64354I0J196D01*
G01X100528Y32646D02*
G03Y33039I0J197D01*
G01D02*
G03Y32646I0J-196D01*
G54D13*
G01X18161Y117307D02*
G02I-492J0D01*
G01X122500Y88134D02*
G02I-492J0D01*
G01X151823Y58693D02*
G02I-492J0D01*
G54D14*
G01X37000Y18882D02*
Y23118D01*
G01X31158Y58842D02*
X32339D01*
G01X31158Y39158D02*
Y58842D01*
G01X35488Y39158D02*
X31158D01*
G01X23000Y71882D02*
Y76118D01*
G01X15094Y83602D02*
Y87736D01*
G01X26709Y89114D02*
X15291D01*
G01X26709Y90886D02*
Y89114D01*
G01X15291D02*
Y90886D01*
G01X25839Y119866D02*
Y128134D01*
G01X18161Y119866D02*
Y128134D01*
G01X20000Y108118D02*
Y103882D01*
G01X35882Y93000D02*
X40118D01*
G01X15291Y90886D02*
X26709D01*
G01X37882Y144000D02*
X42118D01*
G01X36291Y125886D02*
X47709D01*
G01X36291Y124114D02*
Y125886D01*
G01X47709Y124114D02*
X36291D01*
G01X69000Y26882D02*
Y31118D01*
G01X54000Y19118D02*
Y14882D01*
G01X70000Y12118D02*
Y7882D01*
G01X69000Y44118D02*
Y39882D01*
G01X67094Y51602D02*
Y55736D01*
G01X78709Y57114D02*
X67291D01*
G01Y58886D02*
X78709D01*
G01X67291Y57114D02*
Y58886D01*
G01X50842Y58842D02*
X49661D01*
G01X50842Y39158D02*
Y58842D01*
G01X46512Y39158D02*
X50842D01*
G01X61000Y70882D02*
Y75118D01*
G01X41000Y76118D02*
Y71882D01*
G01X49291Y90114D02*
Y91886D01*
G01X60709Y90114D02*
X49291D01*
G01X60709Y91886D02*
Y90114D01*
G01X41000Y106882D02*
Y111118D01*
G01X55602Y116906D02*
X59736D01*
G01X61114Y105291D02*
Y116709D01*
G01X62886Y105291D02*
X61114D01*
G01X62886Y116709D02*
Y105291D01*
G01X61114Y116709D02*
X62886D01*
G01X60906Y97398D02*
Y93264D01*
G01X49291Y91886D02*
X60709D01*
G01X47906Y131398D02*
Y127264D01*
G01X47709Y125886D02*
Y124114D01*
G01X52913Y141768D02*
X63543D01*
G01X52913Y150232D02*
Y141768D01*
G01X63543Y150232D02*
X52913D01*
G01X59768Y136087D02*
Y125457D01*
G01X68232Y136087D02*
X59768D01*
G01X68232Y125457D02*
Y136087D01*
G01X96000Y23118D02*
Y18882D01*
G01X78882Y22000D02*
X83118D01*
G01X78709Y58886D02*
Y57114D01*
G01X86158Y38158D02*
X87339D01*
G01X86158Y57842D02*
Y38158D01*
G01X90488Y57842D02*
X86158D01*
G01X85000Y80118D02*
Y75882D01*
G01X93094Y86602D02*
Y90736D01*
G01X77118Y92000D02*
X72882D01*
G01X91398Y106094D02*
X87264D01*
G01X85886Y117709D02*
Y106291D01*
G01X84114Y117709D02*
X85886D01*
G01X84114Y106291D02*
Y117709D01*
G01X85886Y106291D02*
X84114D01*
G01X104709Y92114D02*
X93291D01*
G01Y93886D02*
X104709D01*
G01X93291Y92114D02*
Y93886D01*
G01X84118Y130000D02*
X79882D01*
G01X86000Y141882D02*
Y146118D01*
G01X115882Y26000D02*
X120118D01*
G01X115882Y54000D02*
X120118D01*
G01X129882Y52000D02*
X134118D01*
G01X105842Y38158D02*
X104661D01*
G01X105842Y57842D02*
Y38158D01*
G01X101512Y57842D02*
X105842D01*
G01X128882Y73000D02*
X133118D01*
G01X116398Y68094D02*
X112264D01*
G01X110886Y79709D02*
Y68291D01*
G01X109114Y79709D02*
X110886D01*
G01X109114Y68291D02*
Y79709D01*
G01X110886Y68291D02*
X109114D01*
G01X111398Y110094D02*
X107264D01*
G01X105886Y121709D02*
Y110291D01*
G01X104114D02*
Y121709D01*
G01X105886Y110291D02*
X104114D01*
G01X104709Y93886D02*
Y92114D01*
G01X122205Y99748D02*
Y106047D01*
G01X147795Y99748D02*
X122205D01*
G01X113906Y151398D02*
Y147264D01*
G01X102291Y145886D02*
X113709D01*
G01X102291Y144114D02*
Y145886D01*
G01X113709Y144114D02*
X102291D01*
G01X113709Y145886D02*
Y144114D01*
G01X104114Y121709D02*
X105886D01*
G01X143161Y56134D02*
Y47866D01*
G01X150839Y56134D02*
Y47866D01*
G01X143882Y73000D02*
X148118D01*
G01X147795Y106047D02*
Y99748D01*
M02*
